<svg width="16" height="16" viewBox="0 0 16 16" fill="none" xmlns="http://www.w3.org/2000/svg">
<path fill-rule="evenodd" clip-rule="evenodd" d="M6.13043 10.9959C5.90661 10.9967 5.68799 10.9279 5.50464 10.7983V10.7976C5.32202 10.6688 5.18414 10.4854 5.11011 10.2734L4.67743 8.94431C4.46295 8.29953 3.95776 7.79306 3.31347 7.57712L2.00043 7.15104C1.68219 7.04496 1.43121 6.79697 1.32117 6.47995C1.1253 5.91587 1.42377 5.29978 1.98773 5.10392L3.31799 4.67636C3.94134 4.45743 4.42969 3.96451 4.64294 3.33902L5.0794 1.99729C5.18554 1.68332 5.42956 1.43528 5.74164 1.32407C6.30481 1.12345 6.92401 1.41745 7.12457 1.98075L7.55719 3.31131C7.77118 3.95603 8.27673 4.46201 8.9212 4.67636L10.235 5.10312C10.5619 5.20426 10.8215 5.45432 10.9349 5.77726C11.1327 6.34024 10.8367 6.957 10.2739 7.15482L8.94287 7.58756C8.30151 7.80082 7.79773 8.30338 7.5827 8.94431L7.12384 10.3401C6.95312 10.7369 6.56225 10.9937 6.13043 10.993V10.9959ZM6.1438 9.75107L6.10773 9.69938L6.13415 9.78074L6.1438 9.75107ZM10.9371 14.1664C10.994 14.3319 11.1014 14.4757 11.244 14.5774C11.5404 14.7914 11.9402 14.793 12.2381 14.5812C12.3871 14.4763 12.4979 14.3265 12.5563 14.1543L12.7974 13.4138C12.8937 13.1239 13.1204 12.896 13.4097 12.7983L14.1688 12.552C14.4227 12.4624 14.6195 12.2583 14.6998 12.0013C14.8406 11.5509 14.5898 11.0718 14.1396 10.9309L13.397 10.689C13.108 10.5926 12.8809 10.3665 12.7831 10.078L12.5368 9.3187C12.4484 9.07431 12.2538 8.88321 12.0076 8.79959C11.5602 8.64743 11.0743 8.887 10.9222 9.33451L10.6796 10.0773C10.5856 10.3633 10.3644 10.5897 10.0807 10.6905L9.32763 10.9346C8.98242 11.0534 8.75073 11.3782 8.75049 11.7433C8.75195 12.1108 8.987 12.4367 9.3352 12.5542L10.077 12.796C10.3678 12.8925 10.5958 13.1212 10.6916 13.4123L10.9371 14.1664Z" fill="url(#paint0_radial_4866_505)"/>
<defs>
<radialGradient id="paint0_radial_4866_505" cx="0" cy="0" r="1" gradientUnits="userSpaceOnUse" gradientTransform="translate(14.739 14.739) scale(19.0607)">
<stop stop-color="#C03BC4"/>
<stop offset="0.35" stop-color="#0078D4"/>
<stop offset="1" stop-color="#0078D4"/>
</radialGradient>
</defs>
</svg>
