<svg width="16" height="16" viewBox="0 0 16 16" fill="none" xmlns="http://www.w3.org/2000/svg">
<path d="M10.6839 14.9961C11.71 14.9961 12.6747 14.5965 13.4002 13.8709C14.1258 13.1453 14.5255 12.1806 14.5255 11.1545C14.5255 10.1284 14.1258 9.16375 13.4002 8.43816C12.6746 7.71257 11.71 7.31299 10.6839 7.31299C9.65776 7.31299 8.69305 7.71257 7.96746 8.43816C7.24187 9.16375 6.84229 10.1284 6.84229 11.1545C6.84229 12.1806 7.24187 13.1453 7.96746 13.8709C8.69305 14.5965 9.65776 14.9961 10.6839 14.9961ZM7.83021 11.1545C7.83021 10.3923 8.12706 9.67571 8.66604 9.13674C9.20501 8.59776 9.92166 8.30091 10.6839 8.30091C11.4461 8.30091 12.1627 8.59776 12.7017 9.13674C13.2406 9.67571 13.5375 10.3923 13.5375 11.1545C13.5375 12.728 12.2573 14.0081 10.6839 14.0081C9.92166 14.0081 9.20501 13.7113 8.66604 13.1724C8.12706 12.6334 7.83021 11.9167 7.83021 11.1545Z" fill="#939CA3"/>
<path d="M5.52828 10.5508C5.78124 10.9963 5.91492 11.5042 5.91492 12.0195C5.91492 12.8157 5.60489 13.5642 5.0419 14.1272C4.47891 14.6902 3.73035 15.0002 2.93418 15.0002H1.48937H1.47363V14.9845V1.20715V1.19141H1.48937L2.451 1.19217C3.63038 1.19217 4.7392 1.65148 5.57317 2.48546C6.40715 3.31943 6.86641 4.42824 6.86641 5.60763C6.86641 7.24234 5.9719 8.73242 4.53037 9.50329C4.94246 9.76524 5.2874 10.1266 5.52828 10.5508ZM4.87459 8.03123C5.52195 7.38387 5.87849 6.52312 5.87849 5.60763C5.87849 4.69214 5.52195 3.83139 4.87459 3.18403C4.23094 2.54039 3.37633 2.18461 2.46674 2.18052V9.03475C3.37633 9.03066 4.23094 8.67488 4.87459 8.03123ZM2.46674 14.0123H2.93418C4.03301 14.0123 4.927 13.1183 4.927 12.0195C4.927 11.4872 4.7197 10.9868 4.34332 10.6103C3.9669 10.234 3.46645 10.0267 2.93418 10.0267C2.93418 10.0267 2.54797 10.0244 2.46674 10.024V14.0123Z" fill="#939CA3"/>
<path d="M11.6435 1.41323L11.6324 1.42426L11.4115 1.64436L11.0916 1.96319L11.0802 1.97456L11.0691 1.9629C11.0221 1.91368 10.8893 1.79912 10.6727 1.79912C10.5317 1.79912 10.3784 1.86489 10.2724 1.97085C10.2005 2.04271 10.1149 2.16802 10.1149 2.35697C10.1149 2.53446 10.1794 2.64698 10.2846 2.75356C10.4788 2.95025 12.0533 4.52789 12.0533 4.52789L12.5849 3.99634L12.5961 3.98521L12.6072 3.99639L13.1471 4.53907L13.1582 4.55025L13.147 4.56133L12.6155 5.09007L13.3635 5.83807L13.3746 5.84919L13.3636 5.86032L12.8265 6.4011L12.8154 6.41233L12.8042 6.40115L12.056 5.65297C11.932 5.77348 11.8038 5.90175 11.5762 6.12936C11.3228 6.38275 10.9497 6.5522 10.5782 6.58263C10.267 6.60812 9.80838 6.55082 9.39068 6.13311C9.09292 5.83535 8.93555 5.46635 8.93555 5.06601C8.93555 4.65226 9.10851 4.22229 9.38692 3.94388L9.68763 3.64541L9.86702 3.46745C9.8576 3.45798 9.84666 3.44728 9.83287 3.43392C9.67897 3.28568 9.31858 2.93846 9.31858 2.35416C9.31858 2.01498 9.45545 1.67489 9.694 1.42108C9.94929 1.14952 10.2969 1 10.6727 1C11.1653 1 11.4818 1.24825 11.6267 1.3962L11.6435 1.41323ZM11.4941 5.08736L10.4291 4.03343L9.95281 4.50977C9.8147 4.64783 9.73228 4.84867 9.73228 5.04694C9.73228 5.24302 9.80852 5.42293 9.95281 5.56722C10.2826 5.89699 10.7374 5.84078 11.0104 5.57089C11.2374 5.34632 11.4449 5.13711 11.4941 5.08736Z" fill="#939CA3"/>
</svg>
