<svg width="16" height="17" viewBox="0 0 16 17" fill="none" xmlns="http://www.w3.org/2000/svg">
<path d="M8.00258 12.8921C12.1391 12.8921 15 9.5457 15 8.50257C15 7.45424 12.1339 4.11304 8.00258 4.11304C3.91774 4.11304 1 7.45424 1 8.50257C1 9.5457 3.91774 12.8921 8.00258 12.8921ZM8.00258 11.379C6.39138 11.379 5.11066 10.0725 5.11066 8.50257C5.11066 6.89135 6.39138 5.62613 8.00258 5.62613C9.5983 5.62613 10.8893 6.89135 10.8893 8.50257C10.8893 10.0725 9.5983 11.379 8.00258 11.379ZM8.00258 9.54055C8.57581 9.54055 9.0509 9.07061 9.0509 8.50257C9.0509 7.92935 8.57581 7.45941 8.00258 7.45941C7.42419 7.45941 6.9491 7.92935 6.9491 8.50257C6.9491 9.07061 7.42419 9.54055 8.00258 9.54055Z" fill="#939CA3"/>
</svg>
