<svg width="16" height="16" viewBox="0 0 16 16" fill="none" xmlns="http://www.w3.org/2000/svg">
<path d="M15 7.99657C15 6.87791 14.7255 5.82793 14.2383 4.89459V11.1054C14.7255 10.172 15 9.10831 15 7.99657Z" fill="#939CA3"/>
<path d="M12.7697 13.0887C13.0441 12.8348 13.2981 12.5534 13.5314 12.2583V3.74161C13.2981 3.44652 13.0441 3.15828 12.7697 2.90436V13.0887Z" fill="#939CA3"/>
<path d="M11.2941 14.1524C11.5618 14.0152 11.8157 13.8505 12.0559 13.6789V2.31417C11.8157 2.1426 11.5618 1.97789 11.2941 1.84064V14.1524Z" fill="#939CA3"/>
<path d="M9.8255 14.7495C10.0794 14.674 10.3402 14.5916 10.5873 14.4887V1.50435C10.3402 1.40141 10.0794 1.31906 9.8255 1.25043V14.7495Z" fill="#939CA3"/>
<path d="M8.35004 14.9828C8.61081 14.976 8.86474 14.9485 9.11181 14.9074V1.09261C8.86474 1.04457 8.61081 1.01712 8.35004 1.01025V14.9828Z" fill="#939CA3"/>
<path d="M6.88824 14.9074C7.13532 14.9485 7.38924 14.976 7.65002 14.9828V1.01025C7.38924 1.01712 7.13532 1.04457 6.88824 1.08574V14.9074Z" fill="#939CA3"/>
<path d="M5.41278 14.4887C5.65984 14.5917 5.92062 14.674 6.17455 14.7495V1.24359C5.92062 1.31222 5.65984 1.40143 5.41278 1.49751V14.4887Z" fill="#939CA3"/>
<path d="M3.94409 13.6789C4.19115 13.8505 4.43821 14.0152 4.70586 14.1525V1.8338C4.43821 1.97105 4.19115 2.13577 3.94409 2.30733V13.6789Z" fill="#939CA3"/>
<path d="M2.46863 12.2583C2.70196 12.5534 2.95588 12.8348 3.23039 13.0887V2.89752C2.95588 3.15144 2.70196 3.43968 2.46863 3.73477V12.2583Z" fill="#939CA3"/>
<path d="M1 7.99653C1 9.10828 1.27451 10.172 1.76177 11.1054V4.8877C1.27451 5.82103 1 6.87788 1 7.99653Z" fill="#939CA3"/>
</svg>
