<svg width="16" height="16" viewBox="0 0 16 16" fill="none" xmlns="http://www.w3.org/2000/svg">
<path fill-rule="evenodd" clip-rule="evenodd" d="M7.71407 2.97484C7.77155 3.11361 7.81906 3.25595 7.85638 3.40076L7.85735 3.4005L8.55022 5.98633L8.55034 5.9863L10.1623 12.0023C10.3095 12.3591 10.6607 12.6103 11.0707 12.6103C11.5538 12.6103 11.9554 12.2615 12.0374 11.802V5.3628H14.4406V11.8009V11.8311H14.4405C14.4366 12.2409 14.354 12.6463 14.1971 13.0252C14.0363 13.4133 13.8007 13.766 13.5036 14.063C13.2066 14.3601 12.8539 14.5957 12.4658 14.7565C12.0776 14.9173 11.6616 15 11.2415 15C10.8214 15 10.4054 14.9173 10.0173 14.7565C9.62918 14.5957 9.27651 14.3601 8.97945 14.063C8.68239 13.766 8.44675 13.4133 8.28598 13.0252C8.2285 12.8864 8.18099 12.7441 8.14367 12.5992L8.14271 12.5995L7.44984 10.0137L7.44972 10.0137L5.83767 3.99746C5.69048 3.64076 5.33927 3.38972 4.92943 3.38972C4.44597 3.38972 4.0441 3.73905 3.96247 4.19907H3.96242V12.5984H1.55945V4.19907V4.16891H1.55959C1.56345 3.75907 1.64604 3.35368 1.80296 2.97484C1.96373 2.58671 2.19937 2.23405 2.49643 1.93699C2.79349 1.63992 3.14616 1.40428 3.53429 1.24351C3.92241 1.08275 4.33841 1 4.75852 1C5.17862 1 5.59462 1.08275 5.98275 1.24351C6.37087 1.40428 6.72354 1.63992 7.0206 1.93699C7.31766 2.23405 7.5533 2.58671 7.71407 2.97484Z" fill="#939CA3"/>
</svg>
