<svg width="16" height="16" viewBox="0 0 16 16" fill="none" xmlns="http://www.w3.org/2000/svg">
<path d="M2.43038 7.35612C2.43038 7.35612 3.69618 5.48852 6.22356 5.29531V4.61775C3.42416 4.84258 1 7.21353 1 7.21353C1 7.21353 2.37301 11.1826 6.22356 11.5461V10.8259C3.39784 10.4704 2.43038 7.35612 2.43038 7.35612ZM6.22356 9.39358V10.0531C4.08794 9.6724 3.49515 7.45241 3.49515 7.45241C3.49515 7.45241 4.52054 6.31649 6.22356 6.13228V6.85602C6.22226 6.85602 6.22136 6.85563 6.22029 6.85563C5.32646 6.74836 4.6282 7.58336 4.6282 7.58336C4.6282 7.58336 5.01957 8.98904 6.22356 9.39358ZM6.22356 3.36804V4.61775C6.30573 4.61145 6.38791 4.60611 6.47054 4.6033C9.65315 4.49603 11.7268 7.21353 11.7268 7.21353C11.7268 7.21353 9.34514 10.1096 6.86383 10.1096C6.63642 10.1096 6.42352 10.0885 6.22356 10.0531V10.8259C6.39455 10.8476 6.57184 10.8604 6.75684 10.8604C9.06587 10.8604 10.7357 9.68112 12.3526 8.28544C12.6207 8.50014 13.7182 9.02246 13.9438 9.2511C12.4064 10.5382 8.82349 11.5758 6.79222 11.5758C6.59642 11.5758 6.40839 11.5639 6.22356 11.5461V12.632H15V3.36804H6.22356ZM6.22356 6.13228V5.29531C6.30489 5.28963 6.38684 5.2853 6.47054 5.28266C8.75915 5.21077 10.2606 7.24936 10.2606 7.24936C10.2606 7.24936 8.63889 9.50169 6.90005 9.50169C6.6498 9.50169 6.42549 9.46147 6.22356 9.39358V6.85602C7.11452 6.96368 7.29378 7.35724 7.82943 8.25017L9.02076 7.24565C9.02076 7.24565 8.15111 6.10511 6.68513 6.10511C6.52578 6.10506 6.37329 6.11625 6.22356 6.13228Z" fill="#939CA3"/>
</svg>
