<svg width="16" height="16" viewBox="0 0 16 16" fill="none" xmlns="http://www.w3.org/2000/svg">
<g clip-path="url(#clip0_2080_58964)">
<mask id="mask0_2080_58964" style="mask-type:luminance" maskUnits="userSpaceOnUse" x="0" y="0" width="16" height="16">
<path d="M0 4.673e-05H16V16H0V4.673e-05Z" fill="white"/>
</mask>
<g mask="url(#mask0_2080_58964)">
<path fill-rule="evenodd" clip-rule="evenodd" d="M0 6.75003C0 7.09521 0.279821 7.37503 0.624998 7.37503H15.375C15.7201 7.37503 16 7.09521 16 6.75003C16 6.40486 15.7201 6.12503 15.375 6.12503H0.624998C0.279821 6.12503 0 6.40486 0 6.75003Z" fill="#939CA3"/>
<path fill-rule="evenodd" clip-rule="evenodd" d="M0 6.75003C0 7.09521 0.279821 7.37503 0.624998 7.37503H15.375C15.7201 7.37503 16 7.09521 16 6.75003C16 6.40486 15.7201 6.12503 15.375 6.12503H0.624998C0.279821 6.12503 0 6.40486 0 6.75003Z" fill="#939CA3"/>
<path fill-rule="evenodd" clip-rule="evenodd" d="M0 9.25003C0 9.59521 0.279821 9.87503 0.624998 9.87503H15.375C15.7201 9.87503 16 9.59521 16 9.25003C16 8.90486 15.7201 8.62503 15.375 8.62503H0.624998C0.279821 8.62503 0 8.90486 0 9.25003Z" fill="#939CA3"/>
<path fill-rule="evenodd" clip-rule="evenodd" d="M8.06248 4.8438C8.40765 4.8438 8.68747 4.56397 8.68747 4.2188V0.625059C8.68747 0.279881 8.40765 6.05583e-05 8.06248 6.05583e-05C7.7173 6.05583e-05 7.43748 0.279881 7.43748 0.625059V4.2188C7.43748 4.56397 7.7173 4.8438 8.06248 4.8438Z" fill="#939CA3"/>
<path fill-rule="evenodd" clip-rule="evenodd" d="M8.06248 4.8438C8.40765 4.8438 8.68747 4.56397 8.68747 4.2188V0.625059C8.68747 0.279881 8.40765 6.05583e-05 8.06248 6.05583e-05C7.7173 6.05583e-05 7.43748 0.279881 7.43748 0.625059V4.2188C7.43748 4.56397 7.7173 4.8438 8.06248 4.8438Z" fill="#939CA3"/>
<path fill-rule="evenodd" clip-rule="evenodd" d="M7.6208 3.75286C7.62067 3.75273 7.62054 3.7526 7.62042 3.75247L6.31959 2.43578C6.077 2.19023 5.68128 2.18783 5.43573 2.43043C5.19018 2.67302 5.18778 3.06874 5.43037 3.31429L6.73292 4.63272C7.46662 5.37247 8.65833 5.37247 9.39204 4.63272L9.3929 4.63185L10.6946 3.31429C10.9372 3.06874 10.9348 2.67302 10.6892 2.43043C10.4437 2.18783 10.048 2.19023 9.80536 2.43578L8.50454 3.75247C8.50442 3.75259 8.5043 3.75271 8.50419 3.75282C8.25956 3.99909 7.86544 3.9991 7.6208 3.75286Z" fill="#939CA3"/>
<path fill-rule="evenodd" clip-rule="evenodd" d="M7.6208 3.75286C7.62067 3.75273 7.62054 3.7526 7.62042 3.75247L6.31959 2.43578C6.077 2.19023 5.68128 2.18783 5.43573 2.43043C5.19018 2.67302 5.18778 3.06874 5.43037 3.31429L6.73292 4.63272C7.46662 5.37247 8.65833 5.37247 9.39204 4.63272L9.3929 4.63185L10.6946 3.31429C10.9372 3.06874 10.9348 2.67302 10.6892 2.43043C10.4437 2.18783 10.048 2.19023 9.80536 2.43578L8.50454 3.75247C8.50442 3.75259 8.5043 3.75271 8.50419 3.75282C8.25956 3.99909 7.86544 3.9991 7.6208 3.75286Z" fill="#939CA3"/>
<path fill-rule="evenodd" clip-rule="evenodd" d="M8.06248 16C8.40765 16 8.68747 15.7202 8.68747 15.375V11.7813C8.68747 11.4361 8.40765 11.1563 8.06248 11.1563C7.7173 11.1563 7.43748 11.4361 7.43748 11.7813V15.375C7.43748 15.7202 7.7173 16 8.06248 16Z" fill="#939CA3"/>
<path fill-rule="evenodd" clip-rule="evenodd" d="M8.06248 16C8.40765 16 8.68747 15.7202 8.68747 15.375V11.7813C8.68747 11.4361 8.40765 11.1563 8.06248 11.1563C7.7173 11.1563 7.43748 11.4361 7.43748 11.7813V15.375C7.43748 15.7202 7.7173 16 8.06248 16Z" fill="#939CA3"/>
<path fill-rule="evenodd" clip-rule="evenodd" d="M5.43573 13.5696C5.68128 13.8122 6.077 13.8098 6.31959 13.5643L7.62042 12.2476C7.62054 12.2475 7.62067 12.2473 7.6208 12.2472C7.86544 12.0009 8.25956 12.001 8.50419 12.2472C8.5043 12.2473 8.50442 12.2475 8.50454 12.2476L9.80536 13.5643C10.048 13.8098 10.4437 13.8122 10.6892 13.5696C10.9348 13.327 10.9372 12.9313 10.6946 12.6858L9.39204 11.3673C8.65833 10.6276 7.46662 10.6276 6.73292 11.3673L5.43037 12.6858C5.18778 12.9313 5.19018 13.327 5.43573 13.5696Z" fill="#939CA3"/>
<path fill-rule="evenodd" clip-rule="evenodd" d="M5.43573 13.5696C5.68128 13.8122 6.077 13.8098 6.31959 13.5643L7.62042 12.2476C7.62054 12.2475 7.62067 12.2473 7.6208 12.2472C7.86544 12.0009 8.25956 12.001 8.50419 12.2472C8.5043 12.2473 8.50442 12.2475 8.50454 12.2476L9.80536 13.5643C10.048 13.8098 10.4437 13.8122 10.6892 13.5696C10.9348 13.327 10.9372 12.9313 10.6946 12.6858L9.39204 11.3673C8.65833 10.6276 7.46662 10.6276 6.73292 11.3673L5.43037 12.6858C5.18778 12.9313 5.19018 13.327 5.43573 13.5696Z" fill="#939CA3"/>
</g>
</g>
<defs>
<clipPath id="clip0_2080_58964">
<rect width="16" height="16" fill="white"/>
</clipPath>
</defs>
</svg>
