<svg width="16" height="16" viewBox="0 0 16 16" fill="none" xmlns="http://www.w3.org/2000/svg">
<path d="M4.64 11.9433C4.58254 11.9435 4.52562 11.9322 4.47255 11.9102C4.41947 11.8881 4.3713 11.8558 4.33083 11.815C3.31117 10.7959 2.75 9.44142 2.75 8C2.75 6.55858 3.31117 5.20408 4.33083 4.185C4.37147 4.14436 4.41972 4.11213 4.47281 4.09013C4.52591 4.06814 4.58282 4.05682 4.64029 4.05682C4.69776 4.05682 4.75467 4.06814 4.80777 4.09013C4.86087 4.11213 4.90911 4.14436 4.94975 4.185C4.99039 4.22564 5.02262 4.27388 5.04462 4.32698C5.06661 4.38008 5.07793 4.43699 5.07793 4.49446C5.07793 4.55193 5.06661 4.60884 5.04462 4.66194C5.02262 4.71503 4.99039 4.76328 4.94975 4.80392C4.09517 5.65733 3.625 6.7925 3.625 8C3.625 9.2075 4.09517 10.3427 4.94975 11.1961C5.01109 11.2573 5.05289 11.3353 5.06983 11.4203C5.08678 11.5052 5.07811 11.5933 5.04494 11.6734C5.01176 11.7534 4.95556 11.8218 4.88347 11.8699C4.81138 11.9179 4.72664 11.9435 4.64 11.9433Z" fill="#9CA3AF"/>
<path d="M3.40333 13.18C3.34587 13.1801 3.28895 13.1689 3.23588 13.1468C3.18281 13.1248 3.13464 13.0925 3.09417 13.0517C1.74375 11.7013 1 9.9075 1 8C1 6.0925 1.74375 4.29875 3.09417 2.94833C3.13481 2.90769 3.18305 2.87546 3.23615 2.85347C3.28924 2.83147 3.34615 2.82015 3.40363 2.82015C3.4611 2.82015 3.51801 2.83147 3.5711 2.85347C3.6242 2.87546 3.67244 2.90769 3.71308 2.94833C3.75372 2.98897 3.78596 3.03722 3.80795 3.09031C3.82995 3.14341 3.84127 3.20032 3.84127 3.25779C3.84127 3.31526 3.82995 3.37217 3.80795 3.42527C3.78596 3.47837 3.75372 3.52661 3.71308 3.56725C2.52775 4.752 1.875 6.32642 1.875 8C1.875 9.67358 2.52775 11.248 3.7125 12.4333C3.77361 12.4945 3.81521 12.5724 3.83206 12.6573C3.84891 12.7421 3.84025 12.83 3.80717 12.9099C3.77409 12.9898 3.71807 13.0581 3.64619 13.1061C3.57432 13.1542 3.48981 13.1799 3.40333 13.18ZM12.5967 13.18C12.5101 13.18 12.4254 13.1544 12.3534 13.1063C12.2814 13.0582 12.2253 12.9898 12.1922 12.9098C12.1591 12.8297 12.1505 12.7417 12.1674 12.6568C12.1844 12.5719 12.2262 12.4939 12.2875 12.4328C13.4728 11.2474 14.125 9.67358 14.125 7.99942C14.125 6.32525 13.4722 4.75142 12.2875 3.56608C12.2054 3.48401 12.1593 3.37269 12.1593 3.25663C12.1593 3.14056 12.2054 3.02924 12.2875 2.94717C12.3696 2.86509 12.4809 2.81898 12.597 2.81898C12.713 2.81898 12.8243 2.86509 12.9064 2.94717C14.2562 4.29875 15 6.0925 15 8C15 9.9075 14.2563 11.7013 12.9058 13.0517C12.8654 13.0925 12.8172 13.1248 12.7641 13.1468C12.711 13.1689 12.6541 13.1801 12.5967 13.18Z" fill="#9CA3AF"/>
<path d="M11.36 11.9433C11.2734 11.9434 11.1887 11.9177 11.1167 11.8696C11.0447 11.8215 10.9886 11.7531 10.9555 11.6731C10.9224 11.5931 10.9138 11.505 10.9308 11.4201C10.9477 11.3352 10.9895 11.2572 11.0508 11.1961C11.9048 10.3427 12.375 9.2075 12.375 8C12.375 6.7925 11.9048 5.65733 11.0503 4.80392C11.0096 4.76328 10.9774 4.71503 10.9554 4.66194C10.9334 4.60884 10.9221 4.55193 10.9221 4.49446C10.9221 4.43699 10.9334 4.38008 10.9554 4.32698C10.9774 4.27388 11.0096 4.22564 11.0503 4.185C11.0909 4.14436 11.1391 4.11213 11.1922 4.09013C11.2453 4.06814 11.3022 4.05682 11.3597 4.05682C11.4172 4.05682 11.4741 4.06814 11.5272 4.09013C11.5803 4.11213 11.6285 4.14436 11.6692 4.185C12.6888 5.20408 13.25 6.55858 13.25 8C13.25 9.44142 12.6888 10.7959 11.6692 11.815C11.6287 11.8558 11.5805 11.8881 11.5275 11.9102C11.4744 11.9322 11.4175 11.9435 11.36 11.9433Z" fill="#9CA3AF"/>
<path d="M6.73008 12.6667C6.66367 12.6666 6.59815 12.6514 6.53848 12.6222C6.4788 12.5931 6.42654 12.5508 6.38563 12.4984C6.34472 12.4461 6.31624 12.3852 6.30234 12.3203C6.28845 12.2553 6.2895 12.1881 6.30542 12.1236L7.14892 8.72917H5.52083C5.44065 8.72913 5.36201 8.70705 5.29352 8.66534C5.22503 8.62364 5.16932 8.56391 5.13247 8.49269C5.09563 8.42147 5.07907 8.34149 5.0846 8.26149C5.09013 8.1815 5.11754 8.10456 5.16383 8.03908L8.36225 3.51825C8.41864 3.43873 8.49997 3.38031 8.59334 3.35228C8.6867 3.32425 8.78676 3.3282 8.87762 3.36352C8.96849 3.39883 9.04496 3.46348 9.09489 3.54721C9.14482 3.63093 9.16536 3.72894 9.15325 3.82567L8.78867 6.6875H10.4792C10.5602 6.68723 10.6396 6.70947 10.7087 6.75175C10.7778 6.79403 10.8338 6.85468 10.8704 6.92693C10.907 6.99918 10.9228 7.08018 10.916 7.1609C10.9093 7.24161 10.8802 7.31885 10.8321 7.384L7.083 12.4882C7.04236 12.5436 6.98922 12.5886 6.92789 12.6196C6.86657 12.6507 6.7988 12.6668 6.73008 12.6667Z" fill="#9CA3AF"/>
</svg>
