<svg width="17" height="16" viewBox="0 0 17 16" fill="none" xmlns="http://www.w3.org/2000/svg">
<path d="M6.77737 1.32609L6.70587 1.36933C6.59215 1.43812 6.48502 1.51504 6.38505 1.59908L6.59126 1.45403H8.34149L8.65967 3.86331L7.06876 5.45422L5.47785 6.56003V7.83514C5.47785 8.72573 5.94332 9.55157 6.7052 10.0127L8.38002 11.0265L4.84149 13.0906H4.15902L2.88701 12.3207C2.12512 11.8595 1.65967 11.0337 1.65967 10.1431V5.85532C1.65967 4.96444 2.12542 4.13838 2.8877 3.6773L6.70587 1.36777C6.72955 1.35345 6.75338 1.33956 6.77737 1.32609Z" fill="url(#paint0_radial_6711_3690)"/>
<path d="M6.77737 1.32609L6.70587 1.36933C6.59215 1.43812 6.48502 1.51504 6.38505 1.59908L6.59126 1.45403H8.34149L8.65967 3.86331L7.06876 5.45422L5.47785 6.56003V7.83514C5.47785 8.72573 5.94332 9.55157 6.7052 10.0127L8.38002 11.0265L4.84149 13.0906H4.15902L2.88701 12.3207C2.12512 11.8595 1.65967 11.0337 1.65967 10.1431V5.85532C1.65967 4.96444 2.12542 4.13838 2.8877 3.6773L6.70587 1.36777C6.72955 1.35345 6.75338 1.33956 6.77737 1.32609Z" fill="url(#paint1_linear_6711_3690)"/>
<path d="M10.5688 6.40876V7.83431C10.5688 8.7249 10.1033 9.55074 9.34142 10.0119L5.52324 12.3231C4.74217 12.7958 3.77034 12.8129 2.97552 12.3743L6.70519 14.6319C7.51547 15.1223 8.53111 15.1223 9.34142 14.6319L13.1596 12.3207C13.9215 11.8595 14.3869 11.0337 14.3869 10.1431V9.11331L14.0687 8.63603L10.5688 6.40876Z" fill="url(#paint2_radial_6711_3690)"/>
<path d="M10.5688 6.40876V7.83431C10.5688 8.7249 10.1033 9.55074 9.34142 10.0119L5.52324 12.3231C4.74217 12.7958 3.77034 12.8129 2.97552 12.3743L6.70519 14.6319C7.51547 15.1223 8.53111 15.1223 9.34142 14.6319L13.1596 12.3207C13.9215 11.8595 14.3869 11.0337 14.3869 10.1431V9.11331L14.0687 8.63603L10.5688 6.40876Z" fill="url(#paint3_linear_6711_3690)"/>
<path d="M13.1589 3.67726L9.34073 1.36773C8.55587 0.892985 7.57851 0.878279 6.78172 1.32361L6.70587 1.36949C5.9436 1.83058 5.47784 2.65662 5.47784 3.54751V6.56511L6.70587 5.82229C7.51583 5.33238 8.53077 5.33238 9.34073 5.82229L13.1589 8.13181C13.8973 8.5785 14.3575 9.36766 14.3856 10.2265C14.3865 10.1987 14.3869 10.1709 14.3869 10.1431V5.85528C14.3869 4.9644 13.9212 4.13834 13.1589 3.67726Z" fill="url(#paint4_radial_6711_3690)"/>
<path d="M13.1589 3.67726L9.34073 1.36773C8.55587 0.892985 7.57851 0.878279 6.78172 1.32361L6.70587 1.36949C5.9436 1.83058 5.47784 2.65662 5.47784 3.54751V6.56511L6.70587 5.82229C7.51583 5.33238 8.53077 5.33238 9.34073 5.82229L13.1589 8.13181C13.8973 8.5785 14.3575 9.36766 14.3856 10.2265C14.3865 10.1987 14.3869 10.1709 14.3869 10.1431V5.85528C14.3869 4.9644 13.9212 4.13834 13.1589 3.67726Z" fill="url(#paint5_linear_6711_3690)"/>
<defs>
<radialGradient id="paint0_radial_6711_3690" cx="0" cy="0" r="1" gradientUnits="userSpaceOnUse" gradientTransform="translate(5.92922 3.74822) rotate(110.528) scale(10.6164 18.5171)">
<stop offset="0.06441" stop-color="#AE7FE2"/>
<stop offset="1" stop-color="#0078D4"/>
</radialGradient>
<linearGradient id="paint1_linear_6711_3690" x1="5.95891" y1="12.4124" x2="4.44417" y2="9.79253" gradientUnits="userSpaceOnUse">
<stop stop-color="#114A8B"/>
<stop offset="1" stop-color="#0078D4" stop-opacity="0"/>
</linearGradient>
<radialGradient id="paint2_radial_6711_3690" cx="0" cy="0" r="1" gradientUnits="userSpaceOnUse" gradientTransform="translate(3.70556 11.9296) rotate(-8.36717) scale(9.87964 6.52616)">
<stop offset="0.133928" stop-color="#D59DFF"/>
<stop offset="1" stop-color="#5E438F"/>
</radialGradient>
<linearGradient id="paint3_linear_6711_3690" x1="13.2277" y1="8.43774" x2="11.6045" y2="10.7652" gradientUnits="userSpaceOnUse">
<stop stop-color="#493474"/>
<stop offset="1" stop-color="#8C66BA" stop-opacity="0"/>
</linearGradient>
<radialGradient id="paint4_radial_6711_3690" cx="0" cy="0" r="1" gradientUnits="userSpaceOnUse" gradientTransform="translate(13.45 8.7964) rotate(-165.772) scale(7.92998 13.3494)">
<stop offset="0.0584996" stop-color="#50E6FF"/>
<stop offset="1" stop-color="#436DCD"/>
</radialGradient>
<linearGradient id="paint5_linear_6711_3690" x1="5.78833" y1="1.33584" x2="8.17819" y2="1.33584" gradientUnits="userSpaceOnUse">
<stop stop-color="#2D3F80"/>
<stop offset="1" stop-color="#436DCD" stop-opacity="0"/>
</linearGradient>
</defs>
</svg>
