<svg width="16" height="16" viewBox="0 0 16 16" fill="none" xmlns="http://www.w3.org/2000/svg">
<path d="M2.74652 12.7882H13.2535C14.4104 12.7882 15 12.2098 15 11.064V5.71871C15 4.57847 14.4104 4 13.2535 4H2.74652C1.57847 4 1 4.5729 1 5.71871V11.064C1 12.2098 1.57847 12.7882 2.74652 12.7882ZM3.10807 7.0592C2.95232 7.0592 2.85777 6.95908 2.85777 6.80334V6.27493C2.85777 6.11919 2.95232 6.01907 3.10807 6.01907H3.63647C3.79777 6.01907 3.89789 6.11919 3.89789 6.27493V6.80334C3.89789 6.95908 3.79777 7.0592 3.63647 7.0592H3.10807ZM4.95471 7.0592C4.79341 7.0592 4.69885 6.95908 4.69885 6.80334V6.27493C4.69885 6.11919 4.79341 6.01907 4.95471 6.01907H5.48311C5.63886 6.01907 5.73898 6.11919 5.73898 6.27493V6.80334C5.73898 6.95908 5.63886 7.0592 5.48311 7.0592H4.95471ZM6.80137 7.0592C6.64559 7.0592 6.54549 6.95908 6.54549 6.80334V6.27493C6.54549 6.11919 6.64559 6.01907 6.80137 6.01907H7.32419C7.48551 6.01907 7.58562 6.11919 7.58562 6.27493V6.80334C7.58562 6.95908 7.48551 7.0592 7.32419 7.0592H6.80137ZM8.648 7.0592C8.49227 7.0592 8.39212 6.95908 8.39212 6.80334V6.27493C8.39212 6.11919 8.49227 6.01907 8.648 6.01907H9.17642C9.33215 6.01907 9.43225 6.11919 9.43225 6.27493V6.80334C9.43225 6.95908 9.33215 7.0592 9.17642 7.0592H8.648ZM10.4946 7.0592C10.3333 7.0592 10.2332 6.95908 10.2332 6.80334V6.27493C10.2332 6.11919 10.3333 6.01907 10.4946 6.01907H11.023C11.1788 6.01907 11.2733 6.11919 11.2733 6.27493V6.80334C11.2733 6.95908 11.1788 7.0592 11.023 7.0592H10.4946ZM12.3413 7.0592C12.18 7.0592 12.0799 6.95908 12.0799 6.80334V6.27493C12.0799 6.11919 12.18 6.01907 12.3413 6.01907H12.8641C13.0254 6.01907 13.12 6.11919 13.12 6.27493V6.80334C13.12 6.95908 13.0254 7.0592 12.8641 7.0592H12.3413ZM3.10807 8.90582C2.95232 8.90582 2.85777 8.80572 2.85777 8.64998V8.12157C2.85777 7.96583 2.95232 7.86571 3.10807 7.86571H3.63647C3.79777 7.86571 3.89789 7.96583 3.89789 8.12157V8.64998C3.89789 8.80572 3.79777 8.90582 3.63647 8.90582H3.10807ZM4.95471 8.90582C4.79341 8.90582 4.69885 8.80572 4.69885 8.64998V8.12157C4.69885 7.96583 4.79341 7.86571 4.95471 7.86571H5.48311C5.63886 7.86571 5.73898 7.96583 5.73898 8.12157V8.64998C5.73898 8.80572 5.63886 8.90582 5.48311 8.90582H4.95471ZM6.80137 8.90582C6.64559 8.90582 6.54549 8.80572 6.54549 8.64998V8.12157C6.54549 7.96583 6.64559 7.86571 6.80137 7.86571H7.32419C7.48551 7.86571 7.58562 7.96583 7.58562 8.12157V8.64998C7.58562 8.80572 7.48551 8.90582 7.32419 8.90582H6.80137ZM8.648 8.90582C8.49227 8.90582 8.39212 8.80572 8.39212 8.64998V8.12157C8.39212 7.96583 8.49227 7.86571 8.648 7.86571H9.17642C9.33215 7.86571 9.43225 7.96583 9.43225 8.12157V8.64998C9.43225 8.80572 9.33215 8.90582 9.17642 8.90582H8.648ZM10.4946 8.90582C10.3333 8.90582 10.2332 8.80572 10.2332 8.64998V8.12157C10.2332 7.96583 10.3333 7.86571 10.4946 7.86571H11.023C11.1788 7.86571 11.2733 7.96583 11.2733 8.12157V8.64998C11.2733 8.80572 11.1788 8.90582 11.023 8.90582H10.4946ZM12.3413 8.90582C12.18 8.90582 12.0799 8.80572 12.0799 8.64998V8.12157C12.0799 7.96583 12.18 7.86571 12.3413 7.86571H12.8641C13.0254 7.86571 13.12 7.96583 13.12 8.12157V8.64998C13.12 8.80572 13.0254 8.90582 12.8641 8.90582H12.3413ZM3.10807 10.7525C2.95232 10.7525 2.85777 10.6524 2.85777 10.4966V9.96821C2.85777 9.81248 2.95232 9.71238 3.10807 9.71238H3.63647C3.79777 9.71238 3.89789 9.81248 3.89789 9.96821V10.4966C3.89789 10.6524 3.79777 10.7525 3.63647 10.7525H3.10807ZM5.01589 10.7525C4.81565 10.7525 4.69885 10.6357 4.69885 10.4354V10.0238C4.69885 9.82914 4.81565 9.71238 5.01589 9.71238H10.9619C11.1565 9.71238 11.2733 9.82914 11.2733 10.0238V10.4354C11.2733 10.6357 11.1565 10.7525 10.9619 10.7525H5.01589ZM12.3413 10.7525C12.18 10.7525 12.0799 10.6524 12.0799 10.4966V9.96821C12.0799 9.81248 12.18 9.71238 12.3413 9.71238H12.8641C13.0254 9.71238 13.12 9.81248 13.12 9.96821V10.4966C13.12 10.6524 13.0254 10.7525 12.8641 10.7525H12.3413Z" fill="#939CA3"/>
</svg>
