<svg width="200" height="200" viewBox="0 0 200 200" fill="none" xmlns="http://www.w3.org/2000/svg">
<circle cx="100" cy="100" r="100" fill="url(#paint0_linear_7804_63894)"/>
<path d="M191 100C191 150.258 150.258 191 100 191C49.7421 191 9 150.258 9 100C9 49.7421 49.7421 9 100 9C150.258 9 191 49.7421 191 100Z" fill="#CB1C22"/>
<path fill-rule="evenodd" clip-rule="evenodd" d="M99.9998 10.0261C50.3086 10.0261 10.0259 50.3088 10.0259 100C10.0259 149.691 50.3086 189.974 99.9998 189.974C149.691 189.974 189.974 149.691 189.974 100C189.974 50.3088 149.691 10.0261 99.9998 10.0261ZM7.97363 100C7.97363 49.1754 49.1751 7.97388 99.9998 7.97388C150.824 7.97388 192.026 49.1754 192.026 100C192.026 150.825 150.824 192.026 99.9998 192.026C49.1751 192.026 7.97363 150.825 7.97363 100Z" fill="url(#paint1_linear_7804_63894)"/>
<rect x="85.9814" y="51.1226" width="27.9871" height="20.9939" transform="rotate(-75 85.9814 51.1226)" fill="white"/>
<path d="M110.403 48.8288L113.228 38.2862L142.523 44.719C146.329 45.5546 148.666 49.398 147.658 53.1613C146.649 56.9246 142.703 59.0843 138.99 57.9053L110.403 48.8288Z" fill="white"/>
<rect x="89.9824" y="21.0729" width="7.43563" height="28.8265" rx="3.71782" transform="rotate(-75 89.9824 21.0729)" fill="white"/>
<rect x="79.6104" y="59.7767" width="7.43563" height="28.8265" rx="3.71782" transform="rotate(-75 79.6104 59.7767)" fill="white"/>
<g filter="url(#filter0_d_7804_63894)">
<path d="M73.4539 124.652H67.5292C67.4871 124.162 67.3751 123.717 67.193 123.318C67.0179 122.919 66.7728 122.576 66.4577 122.288C66.1495 121.994 65.7749 121.77 65.3337 121.616C64.8925 121.455 64.3917 121.375 63.8315 121.375C62.851 121.375 62.0212 121.613 61.3419 122.089C60.6695 122.565 60.1583 123.248 59.8082 124.137C59.465 125.027 59.2934 126.095 59.2934 127.341C59.2934 128.658 59.4685 129.761 59.8187 130.65C60.1758 131.533 60.6906 132.198 61.3629 132.646C62.0352 133.087 62.844 133.308 63.7895 133.308C64.3287 133.308 64.8119 133.241 65.2391 133.108C65.6663 132.968 66.0375 132.769 66.3526 132.51C66.6678 132.25 66.9234 131.939 67.1195 131.575C67.3226 131.204 67.4591 130.787 67.5292 130.325L73.4539 130.367C73.3838 131.277 73.1282 132.205 72.687 133.15C72.2458 134.089 71.619 134.957 70.8066 135.756C70.0013 136.547 69.0033 137.184 67.8128 137.667C66.6223 138.151 65.2391 138.392 63.6634 138.392C61.6885 138.392 59.9167 137.969 58.348 137.121C56.7863 136.274 55.5502 135.027 54.6398 133.382C53.7364 131.736 53.2847 129.722 53.2847 127.341C53.2847 124.946 53.7469 122.929 54.6713 121.291C55.5957 119.645 56.8423 118.402 58.411 117.561C59.9797 116.714 61.7305 116.29 63.6634 116.29C65.022 116.29 66.2721 116.476 67.4136 116.847C68.5551 117.218 69.5566 117.761 70.418 118.475C71.2794 119.183 71.9727 120.054 72.4979 121.091C73.0232 122.127 73.3418 123.314 73.4539 124.652ZM76.1037 138.098V116.584H81.9443V124.988H89.6758V116.584H95.5165V138.098H89.6758V129.694H81.9443V138.098H76.1037ZM103.878 138.098H97.5754L104.677 116.584H112.66L119.761 138.098H113.459L108.752 122.509H108.584L103.878 138.098ZM102.702 129.61H114.551V133.98H102.702V129.61ZM108.668 144.611C107.884 144.611 107.212 144.352 106.652 143.834C106.091 143.316 105.811 142.692 105.811 141.964C105.811 141.236 106.091 140.612 106.652 140.094C107.212 139.576 107.884 139.317 108.668 139.317C109.46 139.317 110.132 139.576 110.685 140.094C111.246 140.612 111.526 141.236 111.526 141.964C111.526 142.692 111.246 143.316 110.685 143.834C110.132 144.352 109.46 144.611 108.668 144.611ZM121.834 116.584H129.103L134.103 128.77H134.355L139.355 116.584H146.625V138.098H140.91V125.661H140.742L135.952 137.93H132.506L127.716 125.576H127.548V138.098H121.834V116.584ZM76.8272 172.098H70.9445V167.14H76.6171C77.6816 167.14 78.5885 166.968 79.3378 166.625C80.0942 166.282 80.6684 165.69 81.0606 164.85C81.4598 164.009 81.6594 162.84 81.6594 161.341C81.6594 159.843 81.4563 158.673 81.0501 157.833C80.6509 156.992 80.0627 156.401 79.2853 156.057C78.515 155.714 77.5695 155.543 76.449 155.543H70.8605V150.584H76.7432C78.9562 150.584 80.868 151.015 82.4788 151.876C84.0965 152.731 85.3431 153.963 86.2185 155.574C87.1009 157.178 87.5421 159.1 87.5421 161.341C87.5421 163.582 87.1044 165.508 86.229 167.119C85.3536 168.723 84.114 169.955 82.5103 170.817C80.9065 171.671 79.0122 172.098 76.8272 172.098ZM74.3901 150.584V172.098H68.5494V150.584H74.3901ZM65.7762 162.14V159.03H77.0793V162.14H65.7762ZM95.8329 172.098H89.5301L96.6313 150.584H104.615L111.716 172.098H105.413L100.707 156.509H100.539L95.8329 172.098ZM94.6564 163.61H106.506V167.98H94.6564V163.61ZM98.6902 148.567L100.707 143.861H105.665L102.514 148.567H98.6902ZM110.71 150.584H117.223L121.425 159.324H121.593L125.795 150.584H132.308L124.409 165.333V172.098H118.61V165.333L110.71 150.584Z" fill="url(#paint2_linear_7804_63894)"/>
</g>
<g filter="url(#filter1_d_7804_63894)">
<g filter="url(#filter2_d_7804_63894)">
<path d="M83.8655 87.3028C83.7571 86.861 83.5862 86.4734 83.3529 86.14C83.1195 85.7983 82.8277 85.5107 82.4776 85.2773C82.1359 85.0356 81.7358 84.8563 81.2773 84.7396C80.8272 84.6146 80.3312 84.5521 79.7894 84.5521C78.6224 84.5521 77.6263 84.8313 76.8011 85.3898C75.9842 85.9483 75.3591 86.7527 74.9256 87.803C74.5005 88.8532 74.2879 90.1202 74.2879 91.604C74.2879 93.1044 74.4922 94.388 74.9006 95.455C75.309 96.522 75.9175 97.3388 76.7261 97.9057C77.5346 98.4725 78.5391 98.7559 79.7394 98.7559C80.798 98.7559 81.6774 98.6017 82.3776 98.2933C83.0861 97.9848 83.6154 97.5472 83.9655 96.9804C84.3156 96.4136 84.4907 95.7467 84.4907 94.9799L85.691 95.1049H79.8394V90.1536H91.1924V93.7045C91.1924 96.0385 90.6965 98.0349 89.7045 99.6936C88.7209 101.344 87.3623 102.611 85.6285 103.495C83.903 104.37 81.9233 104.807 79.6894 104.807C77.197 104.807 75.009 104.278 73.1251 103.22C71.2413 102.161 69.7701 100.652 68.7115 98.6934C67.6612 96.7345 67.136 94.4047 67.136 91.704C67.136 89.5868 67.457 87.7113 68.0988 86.0775C68.749 84.4437 69.6492 83.0642 70.7995 81.9389C71.9498 80.8053 73.2793 79.9509 74.7881 79.3757C76.2968 78.7922 77.9139 78.5005 79.6394 78.5005C81.1564 78.5005 82.5651 78.7172 83.8655 79.1507C85.1742 79.5758 86.3286 80.1843 87.3289 80.9761C88.3375 81.7597 89.1502 82.6891 89.7671 83.7644C90.3839 84.8397 90.759 86.0192 90.8924 87.3028H83.8655ZM101.386 78.8506V104.457H94.4339V78.8506H101.386ZM111.332 104.457H103.83L112.282 78.8506H121.785L130.237 104.457H122.735L117.134 85.9025H116.934L111.332 104.457ZM109.932 94.3547H124.036V99.5561H109.932V94.3547ZM114.733 76.4499L117.134 70.8484H123.035L119.284 76.4499H114.733Z" fill="white"/>
</g>
</g>
<path d="M39.825 81.9371C37.6604 80.3113 37.3443 77.1841 39.1399 75.158C40.9158 73.1542 44.0155 73.0681 45.9 74.9701L56.5453 85.7146C57.8546 87.0361 57.9133 89.147 56.6794 90.5392C55.4601 91.915 53.3889 92.1243 51.9189 91.0203L39.825 81.9371Z" fill="white"/>
<path d="M156.814 81.9371C158.978 80.3113 159.294 77.1841 157.499 75.158C155.723 73.1542 152.623 73.0681 150.739 74.9701L140.093 85.7146C138.784 87.0361 138.725 89.147 139.959 90.5392C141.179 91.915 143.25 92.1243 144.72 91.0203L156.814 81.9371Z" fill="white"/>
<path d="M33.1126 101.301C31.0948 101.328 29.4712 99.6497 29.5655 97.6339C29.6591 95.6347 31.4053 94.1199 33.3977 94.3095L50.5494 95.9423C51.9144 96.0722 52.937 97.251 52.8729 98.6207C52.8094 99.9785 51.6995 101.052 50.3403 101.07L33.1126 101.301Z" fill="white"/>
<path d="M163.526 101.301C165.544 101.328 167.167 99.6497 167.073 97.6339C166.98 95.6347 165.233 94.1199 163.241 94.3095L146.089 95.9423C144.724 96.0722 143.702 97.251 143.766 98.6207C143.829 99.9785 144.939 101.052 146.298 101.07L163.526 101.301Z" fill="white"/>
<defs>
<filter id="filter0_d_7804_63894" x="52.932" y="116.29" width="94.0462" height="56.5143" filterUnits="userSpaceOnUse" color-interpolation-filters="sRGB">
<feFlood flood-opacity="0" result="BackgroundImageFix"/>
<feColorMatrix in="SourceAlpha" type="matrix" values="0 0 0 0 0 0 0 0 0 0 0 0 0 0 0 0 0 0 127 0" result="hardAlpha"/>
<feOffset dy="0.353197"/>
<feGaussianBlur stdDeviation="0.176598"/>
<feColorMatrix type="matrix" values="0 0 0 0 0 0 0 0 0 0 0 0 0 0 0 0 0 0 0.3 0"/>
<feBlend mode="normal" in2="BackgroundImageFix" result="effect1_dropShadow_7804_63894"/>
<feBlend mode="normal" in="SourceGraphic" in2="effect1_dropShadow_7804_63894" result="shape"/>
</filter>
<filter id="filter1_d_7804_63894" x="66.7537" y="70.8484" width="63.8657" height="34.7232" filterUnits="userSpaceOnUse" color-interpolation-filters="sRGB">
<feFlood flood-opacity="0" result="BackgroundImageFix"/>
<feColorMatrix in="SourceAlpha" type="matrix" values="0 0 0 0 0 0 0 0 0 0 0 0 0 0 0 0 0 0 127 0" result="hardAlpha"/>
<feOffset dy="0.382074"/>
<feGaussianBlur stdDeviation="0.191037"/>
<feColorMatrix type="matrix" values="0 0 0 0 0 0 0 0 0 0 0 0 0 0 0 0 0 0 0.3 0"/>
<feBlend mode="normal" in2="BackgroundImageFix" result="effect1_dropShadow_7804_63894"/>
<feBlend mode="normal" in="SourceGraphic" in2="effect1_dropShadow_7804_63894" result="shape"/>
</filter>
<filter id="filter2_d_7804_63894" x="66.7153" y="70.8484" width="63.9423" height="34.7998" filterUnits="userSpaceOnUse" color-interpolation-filters="sRGB">
<feFlood flood-opacity="0" result="BackgroundImageFix"/>
<feColorMatrix in="SourceAlpha" type="matrix" values="0 0 0 0 0 0 0 0 0 0 0 0 0 0 0 0 0 0 127 0" result="hardAlpha"/>
<feOffset dy="0.420393"/>
<feGaussianBlur stdDeviation="0.210197"/>
<feColorMatrix type="matrix" values="0 0 0 0 0 0 0 0 0 0 0 0 0 0 0 0 0 0 0.3 0"/>
<feBlend mode="normal" in2="BackgroundImageFix" result="effect1_dropShadow_7804_63894"/>
<feBlend mode="normal" in="SourceGraphic" in2="effect1_dropShadow_7804_63894" result="shape"/>
</filter>
<linearGradient id="paint0_linear_7804_63894" x1="100" y1="0" x2="100" y2="200" gradientUnits="userSpaceOnUse">
<stop stop-color="#FBF9EB"/>
<stop offset="1" stop-color="#F3C78F"/>
</linearGradient>
<linearGradient id="paint1_linear_7804_63894" x1="-40.0002" y1="74.3255" x2="135" y2="74.3255" gradientUnits="userSpaceOnUse">
<stop stop-color="#FBF8E0"/>
<stop offset="1" stop-color="#DCAF75"/>
</linearGradient>
<linearGradient id="paint2_linear_7804_63894" x1="99.9941" y1="110.098" x2="99.9941" y2="173.6" gradientUnits="userSpaceOnUse">
<stop stop-color="#FBF9EB"/>
<stop offset="1" stop-color="#F3C78F"/>
</linearGradient>
</defs>
</svg>
