<svg width="201" height="201" viewBox="0 0 201 201" fill="none" xmlns="http://www.w3.org/2000/svg">
<circle cx="100.72" cy="100.5" r="100" fill="url(#paint0_linear_6403_60277)"/>
<path d="M191.72 100.5C191.72 150.758 150.978 191.5 100.72 191.5C50.4618 191.5 9.71973 150.758 9.71973 100.5C9.71973 50.2421 50.4618 9.5 100.72 9.5C150.978 9.5 191.72 50.2421 191.72 100.5Z" fill="#CB1C22"/>
<path fill-rule="evenodd" clip-rule="evenodd" d="M100.719 10.5261C51.0283 10.5261 10.7456 50.8088 10.7456 100.5C10.7456 150.191 51.0283 190.474 100.719 190.474C150.411 190.474 190.693 150.191 190.693 100.5C190.693 50.8088 150.411 10.5261 100.719 10.5261ZM8.69336 100.5C8.69336 49.6754 49.8949 8.47388 100.719 8.47388C151.544 8.47388 192.746 49.6754 192.746 100.5C192.746 151.325 151.544 192.526 100.719 192.526C49.8949 192.526 8.69336 151.325 8.69336 100.5Z" fill="url(#paint1_linear_6403_60277)"/>
<path d="M81.5752 157.808L83.2591 162.99H88.7081L84.2997 166.193L85.9836 171.375L81.5752 168.173L77.1668 171.375L78.8507 166.193L74.4423 162.99H79.8913L81.5752 157.808Z" fill="url(#paint2_linear_6403_60277)"/>
<path d="M102.575 157.808L104.259 162.99H109.708L105.3 166.193L106.984 171.375L102.575 168.173L98.1668 171.375L99.8507 166.193L95.4423 162.99H100.891L102.575 157.808Z" fill="url(#paint3_linear_6403_60277)"/>
<path d="M123.575 157.808L125.259 162.99H130.708L126.3 166.193L127.984 171.375L123.575 168.173L119.167 171.375L120.851 166.193L116.442 162.99H121.891L123.575 157.808Z" fill="url(#paint4_linear_6403_60277)"/>
<g filter="url(#filter0_d_6403_60277)">
<path d="M53.6236 63.5164H46.5482C46.498 62.931 46.3642 62.3999 46.1468 61.9232C45.9377 61.4465 45.6449 61.0367 45.2686 60.6938C44.9006 60.3425 44.4532 60.0749 43.9263 59.8909C43.3994 59.6985 42.8014 59.6023 42.1323 59.6023C40.9615 59.6023 39.9704 59.8867 39.1592 60.4554C38.3563 61.0241 37.7458 61.8395 37.3276 62.9017C36.9178 63.9638 36.7129 65.2392 36.7129 66.7279C36.7129 68.3002 36.922 69.6175 37.3401 70.6796C37.7667 71.7334 38.3814 72.5279 39.1843 73.0632C39.9871 73.5901 40.9531 73.8535 42.0822 73.8535C42.7261 73.8535 43.3032 73.7741 43.8134 73.6152C44.3235 73.4479 44.7668 73.2095 45.1431 72.9001C45.5195 72.5906 45.8248 72.2185 46.0589 71.7836C46.3015 71.3403 46.4646 70.8427 46.5482 70.2907L53.6236 70.3409C53.54 71.4281 53.2347 72.5363 52.7078 73.6653C52.1809 74.786 51.4324 75.8231 50.4622 76.7765C49.5005 77.7216 48.3087 78.4826 46.8869 79.0597C45.4651 79.6368 43.8134 79.9253 41.9316 79.9253C39.5731 79.9253 37.4572 79.4193 35.5838 78.4074C33.7188 77.3954 32.2427 75.9067 31.1554 73.9413C30.0765 71.9759 29.5371 69.5715 29.5371 66.7279C29.5371 63.8677 30.0891 61.459 31.1931 59.502C32.297 57.5366 33.7857 56.0521 35.6591 55.0485C37.5325 54.0365 39.6233 53.5305 41.9316 53.5305C43.5541 53.5305 45.047 53.7522 46.4102 54.1954C47.7734 54.6387 48.9694 55.2868 49.9981 56.1399C51.0268 56.9846 51.8547 58.0258 52.482 59.2636C53.1093 60.5014 53.4898 61.919 53.6236 63.5164Z" fill="white"/>
<path d="M56.7881 79.5741V53.8818H63.7631V63.9178H72.9963V53.8818H79.9713V79.5741H72.9963V69.538H63.7631V79.5741H56.7881Z" fill="white"/>
<path d="M90.2583 53.8818V79.5741H83.2832V53.8818H90.2583ZM89.2045 51.0215H84.2366L83.785 49.0645C84.6799 49.0394 85.3155 48.9265 85.6919 48.7258C86.0766 48.5251 86.2606 48.2867 86.2439 48.0107C86.2606 47.5591 86.0431 47.2706 85.5915 47.1451C85.1483 47.0197 84.5795 46.9569 83.8854 46.9569L84.0359 44.197C86.6118 44.197 88.5731 44.4981 89.9196 45.1003C91.2661 45.7024 91.9309 46.5555 91.9142 47.6595C91.9309 48.362 91.655 48.9056 91.0862 49.2903C90.5259 49.675 89.8986 49.9176 89.2045 50.0179V51.0215Z" fill="white"/>
<path d="M100.602 79.5741V53.8818H111.742C113.699 53.8818 115.342 54.1452 116.672 54.6721C118.01 55.199 119.018 55.9434 119.695 56.9052C120.381 57.8669 120.724 59.0002 120.724 60.3049C120.724 61.2499 120.515 62.1113 120.097 62.8891C119.687 63.6669 119.11 64.3193 118.365 64.8462C117.621 65.3647 116.751 65.7243 115.756 65.925V66.1759C116.86 66.2178 117.864 66.4979 118.767 67.0165C119.67 67.5266 120.389 68.2333 120.925 69.1366C121.46 70.0315 121.728 71.0852 121.728 72.2979C121.728 73.703 121.36 74.9533 120.624 76.0489C119.896 77.1445 118.859 78.0059 117.512 78.6332C116.166 79.2604 114.56 79.5741 112.695 79.5741H100.602ZM107.577 74.0041H110.838C112.009 74.0041 112.887 73.7866 113.473 73.3517C114.058 72.9084 114.351 72.2561 114.351 71.3947C114.351 70.7925 114.213 70.2824 113.937 69.8642C113.661 69.446 113.268 69.1282 112.758 68.9108C112.256 68.6933 111.65 68.5846 110.939 68.5846H107.577V74.0041ZM107.577 64.2691H110.437C111.048 64.2691 111.587 64.1729 112.055 63.9806C112.524 63.7882 112.887 63.5122 113.147 63.1526C113.414 62.7846 113.548 62.3372 113.548 61.8103C113.548 61.0157 113.264 60.4094 112.695 59.9912C112.126 59.5647 111.407 59.3514 110.537 59.3514H107.577V64.2691Z" fill="white"/>
<path d="M130.873 79.5741H123.346L131.826 53.8818H141.361L149.841 79.5741H142.314L136.694 60.9572H136.493L130.873 79.5741ZM129.468 69.4377H143.619V74.6564H129.468V69.4377ZM134.285 51.4731L136.694 45.853H142.615L138.852 51.4731H134.285Z" fill="white"/>
<path d="M174.545 53.8818V79.5741H168.724L159.441 66.0756H159.291V79.5741H152.315V53.8818H158.237L167.37 67.3301H167.57V53.8818H174.545Z" fill="white"/>
</g>
<g filter="url(#filter1_d_6403_60277)">
<path d="M50.6502 108.396C50.6502 112.056 49.9387 115.143 48.5156 117.657C47.0926 120.161 45.172 122.06 42.7539 123.355C40.3357 124.639 37.6394 125.28 34.6649 125.28C31.669 125.28 28.962 124.633 26.5439 123.339C24.1365 122.033 22.2213 120.129 20.7982 117.625C19.3859 115.11 18.6797 112.034 18.6797 108.396C18.6797 104.737 19.3859 101.656 20.7982 99.152C22.2213 96.6376 24.1365 94.7384 26.5439 93.4544C28.962 92.1598 31.669 91.5125 34.6649 91.5125C37.6394 91.5125 40.3357 92.1598 42.7539 93.4544C45.172 94.7384 47.0926 96.6376 48.5156 99.152C49.9387 101.656 50.6502 104.737 50.6502 108.396ZM41.4699 108.396C41.4699 106.428 41.2078 104.769 40.6835 103.421C40.1699 102.062 39.4049 101.035 38.3884 100.34C37.3826 99.6335 36.1415 99.2804 34.6649 99.2804C33.1884 99.2804 31.9419 99.6335 30.9254 100.34C29.9196 101.035 29.1546 102.062 28.6303 103.421C28.1168 104.769 27.86 106.428 27.86 108.396C27.86 110.365 28.1168 112.029 28.6303 113.388C29.1546 114.736 29.9196 115.763 30.9254 116.469C31.9419 117.165 33.1884 117.513 34.6649 117.513C36.1415 117.513 37.3826 117.165 38.3884 116.469C39.4049 115.763 40.1699 114.736 40.6835 113.388C41.2078 112.029 41.4699 110.365 41.4699 108.396Z" fill="white"/>
<path d="M50.6502 108.396C50.6502 112.056 49.9387 115.143 48.5156 117.657C47.0926 120.161 45.172 122.06 42.7539 123.355C40.3357 124.639 37.6394 125.28 34.6649 125.28C31.669 125.28 28.962 124.633 26.5439 123.339C24.1365 122.033 22.2213 120.129 20.7982 117.625C19.3859 115.11 18.6797 112.034 18.6797 108.396C18.6797 104.737 19.3859 101.656 20.7982 99.152C22.2213 96.6376 24.1365 94.7384 26.5439 93.4544C28.962 92.1598 31.669 91.5125 34.6649 91.5125C37.6394 91.5125 40.3357 92.1598 42.7539 93.4544C45.172 94.7384 47.0926 96.6376 48.5156 99.152C49.9387 101.656 50.6502 104.737 50.6502 108.396ZM41.4699 108.396C41.4699 106.428 41.2078 104.769 40.6835 103.421C40.1699 102.062 39.4049 101.035 38.3884 100.34C37.3826 99.6335 36.1415 99.2804 34.6649 99.2804C33.1884 99.2804 31.9419 99.6335 30.9254 100.34C29.9196 101.035 29.1546 102.062 28.6303 103.421C28.1168 104.769 27.86 106.428 27.86 108.396C27.86 110.365 28.1168 112.029 28.6303 113.388C29.1546 114.736 29.9196 115.763 30.9254 116.469C31.9419 117.165 33.1884 117.513 34.6649 117.513C36.1415 117.513 37.3826 117.165 38.3884 116.469C39.4049 115.763 40.1699 114.736 40.6835 113.388C41.2078 112.029 41.4699 110.365 41.4699 108.396Z" fill="url(#paint5_linear_6403_60277)"/>
<path d="M83.2185 91.9618V124.831H75.7716L63.895 107.562H63.7024V124.831H54.7789V91.9618H62.3542L74.0382 109.167H74.295V91.9618H83.2185Z" fill="white"/>
<path d="M83.2185 91.9618V124.831H75.7716L63.895 107.562H63.7024V124.831H54.7789V91.9618H62.3542L74.0382 109.167H74.295V91.9618H83.2185Z" fill="url(#paint6_linear_6403_60277)"/>
<path d="M87.4395 124.831V91.9618H96.363V117.641H109.652V124.831H87.4395Z" fill="white"/>
<path d="M87.4395 124.831V91.9618H96.363V117.641H109.652V124.831H87.4395Z" fill="url(#paint7_linear_6403_60277)"/>
<path d="M122.183 91.9618V124.831H113.259V91.9618H122.183Z" fill="white"/>
<path d="M122.183 91.9618V124.831H113.259V91.9618H122.183Z" fill="url(#paint8_linear_6403_60277)"/>
<path d="M154.851 91.9618V124.831H147.404L135.528 107.562H135.335V124.831H126.412V91.9618H133.987L145.671 109.167H145.928V91.9618H154.851Z" fill="white"/>
<path d="M154.851 91.9618V124.831H147.404L135.528 107.562H135.335V124.831H126.412V91.9618H133.987L145.671 109.167H145.928V91.9618H154.851Z" fill="url(#paint9_linear_6403_60277)"/>
<path d="M159.072 124.831V91.9618H182.761V99.152H167.996V104.801H181.541V111.992H167.996V117.641H182.697V124.831H159.072Z" fill="white"/>
<path d="M159.072 124.831V91.9618H182.761V99.152H167.996V104.801H181.541V111.992H167.996V117.641H182.697V124.831H159.072Z" fill="url(#paint10_linear_6403_60277)"/>
</g>
<defs>
<filter id="filter0_d_6403_60277" x="28.5371" y="44.197" width="147.008" height="37.7283" filterUnits="userSpaceOnUse" color-interpolation-filters="sRGB">
<feFlood flood-opacity="0" result="BackgroundImageFix"/>
<feColorMatrix in="SourceAlpha" type="matrix" values="0 0 0 0 0 0 0 0 0 0 0 0 0 0 0 0 0 0 127 0" result="hardAlpha"/>
<feOffset dy="1"/>
<feGaussianBlur stdDeviation="0.5"/>
<feColorMatrix type="matrix" values="0 0 0 0 0 0 0 0 0 0 0 0 0 0 0 0 0 0 0.3 0"/>
<feBlend mode="normal" in2="BackgroundImageFix" result="effect1_dropShadow_6403_60277"/>
<feBlend mode="normal" in="SourceGraphic" in2="effect1_dropShadow_6403_60277" result="shape"/>
</filter>
<filter id="filter1_d_6403_60277" x="17.4663" y="91.5125" width="166.508" height="36.1948" filterUnits="userSpaceOnUse" color-interpolation-filters="sRGB">
<feFlood flood-opacity="0" result="BackgroundImageFix"/>
<feColorMatrix in="SourceAlpha" type="matrix" values="0 0 0 0 0 0 0 0 0 0 0 0 0 0 0 0 0 0 127 0" result="hardAlpha"/>
<feOffset dy="1.21338"/>
<feGaussianBlur stdDeviation="0.606691"/>
<feColorMatrix type="matrix" values="0 0 0 0 0 0 0 0 0 0 0 0 0 0 0 0 0 0 0.3 0"/>
<feBlend mode="normal" in2="BackgroundImageFix" result="effect1_dropShadow_6403_60277"/>
<feBlend mode="normal" in="SourceGraphic" in2="effect1_dropShadow_6403_60277" result="shape"/>
</filter>
<linearGradient id="paint0_linear_6403_60277" x1="100.72" y1="0.5" x2="100.72" y2="200.5" gradientUnits="userSpaceOnUse">
<stop stop-color="#FBF9EB"/>
<stop offset="1" stop-color="#F3C78F"/>
</linearGradient>
<linearGradient id="paint1_linear_6403_60277" x1="-39.2805" y1="74.8255" x2="135.719" y2="74.8255" gradientUnits="userSpaceOnUse">
<stop stop-color="#FBF8E0"/>
<stop offset="1" stop-color="#DCAF75"/>
</linearGradient>
<linearGradient id="paint2_linear_6403_60277" x1="86.9884" y1="160.59" x2="81.1585" y2="169.252" gradientUnits="userSpaceOnUse">
<stop stop-color="#F0EBAE"/>
<stop offset="0.473958" stop-color="#DFB45C"/>
<stop offset="1" stop-color="#FEE8A0"/>
</linearGradient>
<linearGradient id="paint3_linear_6403_60277" x1="107.988" y1="160.59" x2="102.159" y2="169.252" gradientUnits="userSpaceOnUse">
<stop stop-color="#F0EBAE"/>
<stop offset="0.473958" stop-color="#DFB45C"/>
<stop offset="1" stop-color="#FEE8A0"/>
</linearGradient>
<linearGradient id="paint4_linear_6403_60277" x1="128.988" y1="160.59" x2="123.159" y2="169.252" gradientUnits="userSpaceOnUse">
<stop stop-color="#F0EBAE"/>
<stop offset="0.473958" stop-color="#DFB45C"/>
<stop offset="1" stop-color="#FEE8A0"/>
</linearGradient>
<linearGradient id="paint5_linear_6403_60277" x1="100.879" y1="80.7658" x2="100.879" y2="136.13" gradientUnits="userSpaceOnUse">
<stop stop-color="#FBF9EB"/>
<stop offset="1" stop-color="#F3C78F"/>
</linearGradient>
<linearGradient id="paint6_linear_6403_60277" x1="100.879" y1="80.7658" x2="100.879" y2="136.13" gradientUnits="userSpaceOnUse">
<stop stop-color="#FBF9EB"/>
<stop offset="1" stop-color="#F3C78F"/>
</linearGradient>
<linearGradient id="paint7_linear_6403_60277" x1="100.879" y1="80.7658" x2="100.879" y2="136.13" gradientUnits="userSpaceOnUse">
<stop stop-color="#FBF9EB"/>
<stop offset="1" stop-color="#F3C78F"/>
</linearGradient>
<linearGradient id="paint8_linear_6403_60277" x1="100.879" y1="80.7658" x2="100.879" y2="136.13" gradientUnits="userSpaceOnUse">
<stop stop-color="#FBF9EB"/>
<stop offset="1" stop-color="#F3C78F"/>
</linearGradient>
<linearGradient id="paint9_linear_6403_60277" x1="100.879" y1="80.7658" x2="100.879" y2="136.13" gradientUnits="userSpaceOnUse">
<stop stop-color="#FBF9EB"/>
<stop offset="1" stop-color="#F3C78F"/>
</linearGradient>
<linearGradient id="paint10_linear_6403_60277" x1="100.879" y1="80.7658" x2="100.879" y2="136.13" gradientUnits="userSpaceOnUse">
<stop stop-color="#FBF9EB"/>
<stop offset="1" stop-color="#F3C78F"/>
</linearGradient>
</defs>
</svg>
