<svg width="200" height="200" viewBox="0 0 200 200" fill="none" xmlns="http://www.w3.org/2000/svg">
<circle cx="100" cy="100" r="100" fill="url(#paint0_linear_6937_13159)"/>
<path d="M191 100C191 150.258 150.258 191 100 191C49.7421 191 9 150.258 9 100C9 49.7421 49.7421 9 100 9C150.258 9 191 49.7421 191 100Z" fill="#CB1C22"/>
<path fill-rule="evenodd" clip-rule="evenodd" d="M99.9998 10.0261C50.3086 10.0261 10.0259 50.3088 10.0259 100C10.0259 149.691 50.3086 189.974 99.9998 189.974C149.691 189.974 189.974 149.691 189.974 100C189.974 50.3088 149.691 10.0261 99.9998 10.0261ZM7.97363 100C7.97363 49.1754 49.1751 7.97388 99.9998 7.97388C150.824 7.97388 192.026 49.1754 192.026 100C192.026 150.825 150.824 192.026 99.9998 192.026C49.1751 192.026 7.97363 150.825 7.97363 100Z" fill="url(#paint1_linear_6937_13159)"/>
<path d="M79.9482 156.262L81.6321 161.444H87.0812L82.6728 164.647L84.3566 169.829L79.9482 166.626L75.5399 169.829L77.2237 164.647L72.8153 161.444H78.2644L79.9482 156.262Z" fill="url(#paint2_linear_6937_13159)"/>
<path d="M100.948 156.262L102.632 161.444H108.081L103.673 164.647L105.357 169.829L100.948 166.626L96.5399 169.829L98.2237 164.647L93.8153 161.444H99.2644L100.948 156.262Z" fill="url(#paint3_linear_6937_13159)"/>
<path d="M121.948 156.262L123.632 161.444H129.081L124.673 164.647L126.357 169.829L121.948 166.626L117.54 169.829L119.224 164.647L114.815 161.444H120.264L121.948 156.262Z" fill="url(#paint4_linear_6937_13159)"/>
<g filter="url(#filter0_d_6937_13159)">
<path d="M21.486 80.9038H30.2868L36.3406 95.6566H36.6458L42.6996 80.9038H51.5004V106.95H44.5818V91.8921H44.3783L38.5789 106.747H34.4075L28.6081 91.7904H28.4046V106.95H21.486V80.9038ZM61.9228 80.9038V106.95H54.8516V80.9038H61.9228ZM65.2739 106.95V80.9038H84.0457V86.6015H72.3451V91.0782H83.0791V96.7758H72.3451V101.253H83.9948V106.95H65.2739ZM76.364 75.1553L81.3495 78.8181H77.2288L74.7361 77.0375L72.3451 78.8181H68.1228L73.1591 75.1553H76.364ZM77.2797 70.9329L79.4672 71.7469C79.4587 72.4336 79.2764 73.0653 78.9203 73.6419C78.5727 74.2099 78.0597 74.494 77.3814 74.494C76.9999 74.494 76.6311 74.4431 76.275 74.3413C75.9189 74.2311 75.5755 74.1039 75.2448 73.9598C74.9142 73.8157 74.592 73.6927 74.2783 73.591C73.973 73.4808 73.6678 73.4256 73.3626 73.4256C73.1252 73.4256 72.9683 73.5401 72.892 73.769C72.8242 73.9895 72.7945 74.265 72.803 74.5957L70.6664 73.9852C70.6579 73.3493 70.8275 72.7516 71.1751 72.192C71.5312 71.6239 72.0569 71.3399 72.7521 71.3399C73.0573 71.3399 73.3795 71.3908 73.7187 71.4925C74.0663 71.5943 74.4182 71.713 74.7743 71.8486C75.1304 71.9843 75.478 72.103 75.8171 72.2047C76.1563 72.3065 76.4742 72.3573 76.771 72.3573C76.966 72.3573 77.0974 72.2047 77.1652 71.8995C77.2331 71.5858 77.2712 71.2636 77.2797 70.9329ZM110.089 80.9038V106.95H104.188L94.7764 93.2657H94.6238V106.95H87.5526V80.9038H93.5555L102.814 94.5375H103.018V80.9038H110.089ZM120.568 106.95V80.9038H131.811C133.744 80.9038 135.436 81.2853 136.886 82.0484C138.335 82.8115 139.463 83.8841 140.269 85.2661C141.074 86.6481 141.477 88.2633 141.477 90.1116C141.477 91.9769 141.061 93.5921 140.23 94.9572C139.408 96.3222 138.251 97.3736 136.758 98.1112C135.275 98.8489 133.541 99.2177 131.557 99.2177H124.842V93.7235H130.132C130.963 93.7235 131.671 93.5794 132.256 93.2911C132.85 92.9944 133.303 92.5747 133.617 92.032C133.939 91.4894 134.1 90.8493 134.1 90.1116C134.1 89.3655 133.939 88.7296 133.617 88.2039C133.303 87.6698 132.85 87.2628 132.256 86.983C131.671 86.6947 130.963 86.5506 130.132 86.5506H127.64V106.95H120.568ZM144.071 106.95V80.9038H151.142V91.0782H160.503V80.9038H167.574V106.95H160.503V96.7758H151.142V106.95H144.071ZM178.003 80.9038V106.95H170.932V80.9038H178.003ZM172.153 78.462L174.594 72.7643H180.597L176.782 78.462H172.153Z" fill="white"/>
<path d="M21.486 80.9038H30.2868L36.3406 95.6566H36.6458L42.6996 80.9038H51.5004V106.95H44.5818V91.8921H44.3783L38.5789 106.747H34.4075L28.6081 91.7904H28.4046V106.95H21.486V80.9038ZM61.9228 80.9038V106.95H54.8516V80.9038H61.9228ZM65.2739 106.95V80.9038H84.0457V86.6015H72.3451V91.0782H83.0791V96.7758H72.3451V101.253H83.9948V106.95H65.2739ZM76.364 75.1553L81.3495 78.8181H77.2288L74.7361 77.0375L72.3451 78.8181H68.1228L73.1591 75.1553H76.364ZM77.2797 70.9329L79.4672 71.7469C79.4587 72.4336 79.2764 73.0653 78.9203 73.6419C78.5727 74.2099 78.0597 74.494 77.3814 74.494C76.9999 74.494 76.6311 74.4431 76.275 74.3413C75.9189 74.2311 75.5755 74.1039 75.2448 73.9598C74.9142 73.8157 74.592 73.6927 74.2783 73.591C73.973 73.4808 73.6678 73.4256 73.3626 73.4256C73.1252 73.4256 72.9683 73.5401 72.892 73.769C72.8242 73.9895 72.7945 74.265 72.803 74.5957L70.6664 73.9852C70.6579 73.3493 70.8275 72.7516 71.1751 72.192C71.5312 71.6239 72.0569 71.3399 72.7521 71.3399C73.0573 71.3399 73.3795 71.3908 73.7187 71.4925C74.0663 71.5943 74.4182 71.713 74.7743 71.8486C75.1304 71.9843 75.478 72.103 75.8171 72.2047C76.1563 72.3065 76.4742 72.3573 76.771 72.3573C76.966 72.3573 77.0974 72.2047 77.1652 71.8995C77.2331 71.5858 77.2712 71.2636 77.2797 70.9329ZM110.089 80.9038V106.95H104.188L94.7764 93.2657H94.6238V106.95H87.5526V80.9038H93.5555L102.814 94.5375H103.018V80.9038H110.089ZM120.568 106.95V80.9038H131.811C133.744 80.9038 135.436 81.2853 136.886 82.0484C138.335 82.8115 139.463 83.8841 140.269 85.2661C141.074 86.6481 141.477 88.2633 141.477 90.1116C141.477 91.9769 141.061 93.5921 140.23 94.9572C139.408 96.3222 138.251 97.3736 136.758 98.1112C135.275 98.8489 133.541 99.2177 131.557 99.2177H124.842V93.7235H130.132C130.963 93.7235 131.671 93.5794 132.256 93.2911C132.85 92.9944 133.303 92.5747 133.617 92.032C133.939 91.4894 134.1 90.8493 134.1 90.1116C134.1 89.3655 133.939 88.7296 133.617 88.2039C133.303 87.6698 132.85 87.2628 132.256 86.983C131.671 86.6947 130.963 86.5506 130.132 86.5506H127.64V106.95H120.568ZM144.071 106.95V80.9038H151.142V91.0782H160.503V80.9038H167.574V106.95H160.503V96.7758H151.142V106.95H144.071ZM178.003 80.9038V106.95H170.932V80.9038H178.003ZM172.153 78.462L174.594 72.7643H180.597L176.782 78.462H172.153Z" fill="url(#paint5_linear_6937_13159)"/>
</g>
<g filter="url(#filter1_d_6937_13159)">
<path d="M34.1951 127.913C34.1117 127.573 33.9802 127.275 33.8006 127.019C33.621 126.756 33.3965 126.534 33.1271 126.355C32.8642 126.169 32.5563 126.031 32.2035 125.941C31.8572 125.845 31.4756 125.797 31.0586 125.797C30.1607 125.797 29.3942 126.012 28.7592 126.441C28.1307 126.871 27.6496 127.49 27.3161 128.298C26.989 129.106 26.8254 130.081 26.8254 131.223C26.8254 132.377 26.9826 133.365 27.2969 134.186C27.6111 135.007 28.0794 135.636 28.7015 136.072C29.3237 136.508 30.0966 136.726 31.0202 136.726C31.8347 136.726 32.5114 136.607 33.0502 136.37C33.5954 136.133 34.0026 135.796 34.272 135.36C34.5414 134.924 34.6761 134.411 34.6761 133.821L35.5997 133.917H31.0971V130.107H39.8329V132.839C39.8329 134.635 39.4513 136.171 38.688 137.448C37.9312 138.718 36.8857 139.693 35.5516 140.372C34.2239 141.046 32.7006 141.383 30.9817 141.383C29.0639 141.383 27.3802 140.975 25.9307 140.161C24.4811 139.346 23.3491 138.185 22.5345 136.678C21.7264 135.171 21.3223 133.378 21.3223 131.3C21.3223 129.671 21.5692 128.228 22.0631 126.971C22.5634 125.713 23.2561 124.652 24.1412 123.786C25.0263 122.914 26.0494 122.256 27.2103 121.814C28.3712 121.365 29.6155 121.14 30.9432 121.14C32.1105 121.14 33.1945 121.307 34.1951 121.641C35.2021 121.968 36.0904 122.436 36.8601 123.045C37.6361 123.648 38.2615 124.363 38.7361 125.191C39.2108 126.018 39.4994 126.926 39.602 127.913H34.1951ZM47.6764 121.41V141.113H42.3271V121.41H47.6764ZM55.3298 141.113H49.5573L56.061 121.41H63.3729L69.8766 141.113H64.1041L59.7939 126.836H59.64L55.3298 141.113ZM54.2523 133.34H65.1047V137.342H54.2523V133.34ZM89.9363 131.261C89.9363 133.455 89.5097 135.305 88.6567 136.813C87.8036 138.314 86.6523 139.452 85.2028 140.228C83.7532 140.998 82.1369 141.383 80.3538 141.383C78.5579 141.383 76.9352 140.995 75.4856 140.219C74.0425 139.436 72.8944 138.294 72.0414 136.793C71.1947 135.286 70.7714 133.442 70.7714 131.261C70.7714 129.068 71.1947 127.221 72.0414 125.72C72.8944 124.213 74.0425 123.074 75.4856 122.304C76.9352 121.528 78.5579 121.14 80.3538 121.14C82.1369 121.14 83.7532 121.528 85.2028 122.304C86.6523 123.074 87.8036 124.213 88.6567 125.72C89.5097 127.221 89.9363 129.068 89.9363 131.261ZM84.4331 131.261C84.4331 130.081 84.276 129.087 83.9617 128.279C83.6538 127.464 83.1952 126.849 82.5859 126.432C81.983 126.008 81.239 125.797 80.3538 125.797C79.4687 125.797 78.7215 126.008 78.1122 126.432C77.5092 126.849 77.0506 127.464 76.7364 128.279C76.4285 129.087 76.2746 130.081 76.2746 131.261C76.2746 132.442 76.4285 133.439 76.7364 134.254C77.0506 135.062 77.5092 135.677 78.1122 136.101C78.7215 136.518 79.4687 136.726 80.3538 136.726C81.239 136.726 81.983 136.518 82.5859 136.101C83.1952 135.677 83.6538 135.062 83.9617 134.254C84.276 133.439 84.4331 132.442 84.4331 131.261ZM97.8086 141.113V121.41H103.158V129.106H110.239V121.41H115.588V141.113H110.239V133.417H103.158V141.113H97.8086ZM123.246 141.113H117.474L123.977 121.41H131.289L137.793 141.113H132.021L127.71 126.836H127.556L123.246 141.113ZM122.169 133.34H133.021V137.342H122.169V133.34ZM125.902 119.562L123.015 115.252H127.556L129.404 119.562H125.902ZM156.739 121.41V141.113H152.275L145.156 130.761H145.04V141.113H139.691V121.41H144.232L151.236 131.723H151.39V121.41H156.739ZM172.065 127.913C171.982 127.573 171.85 127.275 171.671 127.019C171.491 126.756 171.267 126.534 170.997 126.355C170.734 126.169 170.426 126.031 170.074 125.941C169.727 125.845 169.346 125.797 168.929 125.797C168.031 125.797 167.264 126.012 166.629 126.441C166.001 126.871 165.52 127.49 165.186 128.298C164.859 129.106 164.696 130.081 164.696 131.223C164.696 132.377 164.853 133.365 165.167 134.186C165.481 135.007 165.95 135.636 166.572 136.072C167.194 136.508 167.967 136.726 168.89 136.726C169.705 136.726 170.382 136.607 170.92 136.37C171.466 136.133 171.873 135.796 172.142 135.36C172.412 134.924 172.546 134.411 172.546 133.821L173.47 133.917H168.967V130.107H177.703V132.839C177.703 134.635 177.321 136.171 176.558 137.448C175.801 138.718 174.756 139.693 173.422 140.372C172.094 141.046 170.571 141.383 168.852 141.383C166.934 141.383 165.25 140.975 163.801 140.161C162.351 139.346 161.219 138.185 160.405 136.678C159.597 135.171 159.192 133.378 159.192 131.3C159.192 129.671 159.439 128.228 159.933 126.971C160.434 125.713 161.126 124.652 162.011 123.786C162.896 122.914 163.92 122.256 165.08 121.814C166.241 121.365 167.486 121.14 168.813 121.14C169.981 121.14 171.065 121.307 172.065 121.641C173.072 121.968 173.961 122.436 174.73 123.045C175.506 123.648 176.132 124.363 176.606 125.191C177.081 126.018 177.37 126.926 177.472 127.913H172.065Z" fill="white"/>
</g>
<path d="M92.8619 65.3934C95.3613 63.0635 95.7461 59.4142 93.7215 57.2423C91.697 55.0705 88.0296 55.1986 85.5303 57.5284C83.031 59.8582 82.6461 63.5076 84.6707 65.6794C86.6953 67.8513 90.3626 67.7232 92.8619 65.3934Z" fill="url(#paint6_linear_6937_13159)"/>
<path d="M125.932 65.3958C128.432 63.066 128.816 59.4166 126.792 57.2448C124.767 55.0729 121.1 55.201 118.601 57.5308C116.101 59.8607 115.716 63.51 117.741 65.6819C119.766 67.8537 123.433 67.7256 125.932 65.3958Z" fill="url(#paint7_linear_6937_13159)"/>
<path d="M66.6343 36.8783C66.6343 35.436 65.4651 34.2667 64.0227 34.2667C62.5804 34.2667 61.4111 35.436 61.4111 36.8783C61.4111 38.3206 62.5804 39.4899 64.0227 39.4899C65.4651 39.4899 66.6343 38.3206 66.6343 36.8783Z" fill="url(#paint8_linear_6937_13159)"/>
<path d="M113.579 60.9147C114.507 56.3263 118.842 52.68 123.501 52.68C127.986 52.68 131.22 56.0617 131.131 60.41C135.983 60.537 137.333 54.1483 137.333 54.1483C137.741 52.3619 138.352 48.8793 138.863 45.4609C139.03 44.4055 138.901 43.3244 138.491 42.3377C137.223 39.3773 135.69 36.5373 133.912 33.8522C132.229 31.3423 129.407 29.8557 126.186 29.8021C124.265 29.7716 122.379 29.7532 120.955 29.7532L120.943 29.741C120.76 26.6698 118.521 24.3174 115.377 24.036C113.333 23.854 105.232 23.7209 101.345 23.7209C99.7998 23.7209 97.5836 23.7424 95.3414 23.7791V23.7699H95.323H68.3645C68.0213 23.7697 67.6815 23.8371 67.3645 23.9683C67.0475 24.0995 66.7594 24.292 66.5168 24.5346C66.2742 24.7772 66.0818 25.0653 65.9506 25.3823C65.8193 25.6993 65.7519 26.0391 65.7521 26.3822V26.3945C65.7521 27.0841 66.026 27.7454 66.5137 28.233C67.0013 28.7206 67.6626 28.9946 68.3522 28.9946H73.7864C74.4408 29.0428 75.0527 29.3367 75.4995 29.8172C75.9462 30.2977 76.1948 30.9294 76.1954 31.5855V31.5993C76.1964 31.9427 76.1296 32.283 75.999 32.6006C75.8684 32.9182 75.6764 33.207 75.434 33.4503C75.1917 33.6937 74.9037 33.8869 74.5866 34.0188C74.2695 34.1508 73.9295 34.2189 73.5861 34.2193H70.7994C70.1069 34.2193 69.4429 34.4943 68.9533 34.984C68.4636 35.4736 68.1886 36.1377 68.1886 36.8301C68.1884 37.1731 68.2557 37.5127 68.3869 37.8297C68.518 38.1466 68.7103 38.4346 68.9527 38.6772C69.1952 38.9198 69.4831 39.1122 69.7999 39.2435C70.1168 39.3748 70.4564 39.4424 70.7994 39.4424H73.5861C74.2789 39.4424 74.9434 39.7177 75.4333 40.2076C75.9232 40.6975 76.1984 41.3619 76.1984 42.0548C76.1984 42.7476 75.9232 43.4121 75.4333 43.902C74.9434 44.3919 74.2789 44.6671 73.5861 44.6671H63.1612C62.4686 44.6671 61.8044 44.9421 61.3145 45.4317C60.8246 45.9213 60.5492 46.5854 60.5488 47.2779C60.5488 47.9708 60.8241 48.6352 61.314 49.1251C61.8039 49.6151 62.4683 49.8903 63.1612 49.8903H73.5861C74.2789 49.8903 74.9434 50.1655 75.4333 50.6554C75.9232 51.1453 76.1984 51.8098 76.1984 52.5026C76.1976 53.1949 75.922 53.8586 75.4322 54.3479C74.9424 54.8371 74.2784 55.1119 73.5861 55.1119H70.3619C69.6695 55.1119 69.0054 55.387 68.5158 55.8766C68.0262 56.3662 67.7511 57.0303 67.7511 57.7227C67.7511 58.4153 68.0262 59.0795 68.5157 59.5694C69.0053 60.0593 69.6694 60.3347 70.3619 60.3351L80.6492 60.3274L81.5042 58.1969C83.2554 54.9666 86.7396 52.6785 90.4287 52.6785C95.089 52.6785 98.3988 56.3278 98.0348 60.9193H113.577M87.668 35.4352H84.1624C84.1591 35.4355 84.156 35.4368 84.1535 35.439C84.151 35.4412 84.1493 35.4442 84.1486 35.4474L83.8259 37.7417C83.8255 37.7435 83.8254 37.7454 83.8258 37.7473C83.8262 37.7491 83.827 37.7509 83.8282 37.7524C83.8294 37.7538 83.8309 37.755 83.8326 37.7558C83.8344 37.7566 83.8363 37.757 83.8382 37.7569H86.4474C86.5755 37.7533 86.7028 37.7783 86.82 37.8301C86.9372 37.8819 87.0413 37.9592 87.1249 38.0563C87.2084 38.1535 87.2692 38.2681 87.3028 38.3917C87.3364 38.5153 87.3421 38.6449 87.3193 38.771C87.2745 39.0481 87.1346 39.301 86.9236 39.4861C86.7125 39.6712 86.4436 39.7769 86.163 39.785H83.5506C83.5474 39.785 83.5443 39.786 83.5418 39.7879C83.5393 39.7899 83.5376 39.7926 83.5369 39.7957L83.0688 43.1285C83.0241 43.4056 82.8842 43.6585 82.6732 43.8435C82.4621 44.0286 82.1931 44.1344 81.9126 44.1425C81.7845 44.1462 81.6573 44.1212 81.5401 44.0694C81.423 44.0176 81.3189 43.9403 81.2355 43.8431C81.1521 43.7459 81.0914 43.6313 81.058 43.5077C81.0246 43.384 81.0192 43.2545 81.0423 43.1285L82.2567 34.4839C82.3048 34.1912 82.4532 33.9244 82.6764 33.729C82.8996 33.5337 83.1838 33.4221 83.4803 33.4132H87.9509C88.079 33.4095 88.2062 33.4345 88.3233 33.4863C88.4405 33.5381 88.5446 33.6154 88.628 33.7126C88.7114 33.8098 88.772 33.9244 88.8055 34.0481C88.8389 34.1717 88.8443 34.3013 88.8212 34.4273C88.7759 34.703 88.636 34.9544 88.4256 35.1383C88.2152 35.3222 87.9473 35.4272 87.668 35.4352ZM97.0375 34.1015C97.4017 34.4246 97.658 34.8517 97.7717 35.3251C97.8988 35.8614 97.9196 36.4174 97.8329 36.9616C97.7265 37.8085 97.38 38.6073 96.8341 39.2635C96.5008 39.6576 96.0774 39.9655 95.5998 40.1613C95.5977 40.1636 95.5965 40.1666 95.5965 40.1697C95.5965 40.1728 95.5977 40.1758 95.5998 40.1781L96.4686 42.6849C96.7026 43.3579 96.1015 44.1425 95.3536 44.1425H95.3046C95.1232 44.1478 94.9448 44.0953 94.7952 43.9924C94.6456 43.8896 94.5326 43.7418 94.4726 43.5705L93.4219 40.5115C93.4204 40.5092 93.4183 40.5073 93.4159 40.506C93.4135 40.5047 93.4108 40.5039 93.4081 40.5039H91.1751C91.1719 40.5041 91.169 40.5052 91.1665 40.5071C91.164 40.509 91.1622 40.5116 91.1613 40.5146L90.7942 43.1269C90.7495 43.4041 90.6096 43.6569 90.3985 43.842C90.1875 44.0271 89.9185 44.1328 89.6379 44.141C89.5099 44.1447 89.3827 44.1197 89.2655 44.0679C89.1484 44.0161 89.0443 43.9388 88.9609 43.8416C88.8775 43.7444 88.8168 43.6298 88.7834 43.5061C88.75 43.3825 88.7446 43.2529 88.7677 43.1269L89.9821 34.4823C90.0302 34.1897 90.1786 33.9228 90.4018 33.7275C90.625 33.5322 90.9092 33.4205 91.2056 33.4117H94.6623C94.6623 33.4117 96.1795 33.3643 97.0375 34.1015ZM106.551 34.3554C106.509 34.6142 106.379 34.8505 106.182 35.0233C105.984 35.1962 105.733 35.2948 105.471 35.3021H101.45C101.447 35.3023 101.444 35.3034 101.442 35.3053C101.439 35.3073 101.437 35.3099 101.436 35.3128L101.117 37.5826C101.116 37.5844 101.116 37.5864 101.117 37.5882C101.117 37.5901 101.118 37.5918 101.119 37.5933C101.12 37.5948 101.122 37.596 101.123 37.5968C101.125 37.5976 101.127 37.5979 101.129 37.5979H104.252C104.372 37.5943 104.491 37.6176 104.6 37.6659C104.71 37.7142 104.807 37.7864 104.885 37.8771C104.963 37.9679 105.02 38.0749 105.051 38.1904C105.082 38.3059 105.087 38.4269 105.066 38.5446C105.024 38.8035 104.894 39.0397 104.696 39.2126C104.499 39.3854 104.248 39.484 103.986 39.4914H100.861C100.858 39.4915 100.855 39.4927 100.853 39.4946C100.85 39.4965 100.848 39.4991 100.847 39.5021L100.464 42.2337C100.464 42.2375 100.465 42.2412 100.467 42.244C100.47 42.2469 100.474 42.2486 100.477 42.249H104.495C104.615 42.2455 104.734 42.2687 104.843 42.317C104.953 42.3653 105.05 42.4375 105.128 42.5283C105.206 42.619 105.263 42.726 105.294 42.8415C105.325 42.957 105.33 43.078 105.309 43.1958C105.267 43.4546 105.137 43.6909 104.94 43.8637C104.742 44.0365 104.491 44.1351 104.229 44.1425H99.243C99.1085 44.1444 98.9752 44.1167 98.8526 44.0613C98.73 44.0059 98.621 43.9243 98.5334 43.8221C98.4459 43.72 98.3818 43.5998 98.3459 43.4702C98.3099 43.3405 98.3029 43.2045 98.3254 43.0719L99.5321 34.4885C99.5802 34.1958 99.7286 33.9289 99.9518 33.7336C100.175 33.5383 100.459 33.4267 100.756 33.4178H105.74C105.859 33.415 105.976 33.4384 106.085 33.4864C106.193 33.5344 106.289 33.6058 106.367 33.6954C106.444 33.785 106.501 33.8907 106.533 34.0048C106.565 34.1189 106.571 34.2386 106.551 34.3554ZM114.903 34.3554C114.862 34.6142 114.731 34.8505 114.534 35.0233C114.337 35.1962 114.086 35.2948 113.824 35.3021H109.803C109.799 35.3023 109.796 35.3034 109.794 35.3053C109.792 35.3073 109.79 35.3099 109.789 35.3128L109.471 37.5826C109.47 37.5844 109.47 37.5864 109.471 37.5882C109.471 37.5901 109.472 37.5918 109.473 37.5933C109.474 37.5948 109.476 37.596 109.477 37.5968C109.479 37.5976 109.481 37.5979 109.483 37.5979H112.606C112.726 37.5943 112.845 37.6176 112.954 37.6659C113.064 37.7142 113.161 37.7864 113.239 37.8771C113.317 37.9679 113.374 38.0749 113.405 38.1904C113.436 38.3059 113.441 38.4269 113.42 38.5446C113.378 38.8035 113.248 39.0397 113.05 39.2126C112.853 39.3854 112.602 39.484 112.34 39.4914H109.214C109.211 39.4915 109.208 39.4927 109.205 39.4946C109.203 39.4965 109.201 39.4991 109.2 39.5021L108.816 42.2337C108.816 42.2375 108.817 42.2412 108.82 42.244C108.823 42.2469 108.826 42.2486 108.83 42.249H112.848C112.967 42.2455 113.086 42.2687 113.196 42.317C113.305 42.3653 113.402 42.4375 113.48 42.5283C113.558 42.619 113.615 42.726 113.646 42.8415C113.678 42.957 113.683 43.078 113.661 43.1958C113.62 43.4546 113.489 43.6909 113.292 43.8637C113.095 44.0365 112.844 44.1351 112.582 44.1425H107.596C107.461 44.1444 107.328 44.1167 107.205 44.0613C107.082 44.0059 106.973 43.9243 106.886 43.8221C106.798 43.72 106.734 43.5998 106.698 43.4702C106.662 43.3405 106.655 43.2045 106.678 43.0719L107.885 34.4885C107.933 34.1958 108.081 33.9289 108.304 33.7336C108.528 33.5383 108.812 33.4267 109.108 33.4178H114.093C114.211 33.415 114.329 33.4384 114.437 33.4864C114.545 33.5344 114.642 33.6058 114.719 33.6954C114.797 33.785 114.853 33.8907 114.885 34.0048C114.917 34.1189 114.923 34.2386 114.903 34.3554ZM120.715 33.375C122.081 33.375 123.849 33.3934 125.623 33.4224C127.774 33.4576 129.655 34.4456 130.784 36.1311C131.99 37.9487 133.073 39.8444 134.028 41.8055C134.533 42.8333 133.604 44.1716 132.388 44.1716H119.35L120.715 33.375Z" fill="url(#paint9_linear_6937_13159)"/>
<path d="M93.8443 38.612H91.4277L91.8866 35.3022H94.3016C94.3016 35.3022 96.0743 35.1875 95.7837 36.9571C95.7913 36.9571 95.5879 38.612 93.8443 38.612Z" fill="url(#paint10_linear_6937_13159)"/>
<defs>
<filter id="filter0_d_6937_13159" x="20.647" y="70.933" width="160.79" height="37.6959" filterUnits="userSpaceOnUse" color-interpolation-filters="sRGB">
<feFlood flood-opacity="0" result="BackgroundImageFix"/>
<feColorMatrix in="SourceAlpha" type="matrix" values="0 0 0 0 0 0 0 0 0 0 0 0 0 0 0 0 0 0 127 0" result="hardAlpha"/>
<feOffset dy="0.839336"/>
<feGaussianBlur stdDeviation="0.419668"/>
<feColorMatrix type="matrix" values="0 0 0 0 0 0 0 0 0 0 0 0 0 0 0 0 0 0 0.3 0"/>
<feBlend mode="normal" in2="BackgroundImageFix" result="effect1_dropShadow_6937_13159"/>
<feBlend mode="normal" in="SourceGraphic" in2="effect1_dropShadow_6937_13159" result="shape"/>
</filter>
<filter id="filter1_d_6937_13159" x="20.5432" y="115.252" width="157.939" height="27.6886" filterUnits="userSpaceOnUse" color-interpolation-filters="sRGB">
<feFlood flood-opacity="0" result="BackgroundImageFix"/>
<feColorMatrix in="SourceAlpha" type="matrix" values="0 0 0 0 0 0 0 0 0 0 0 0 0 0 0 0 0 0 127 0" result="hardAlpha"/>
<feOffset dy="0.779053"/>
<feGaussianBlur stdDeviation="0.389526"/>
<feColorMatrix type="matrix" values="0 0 0 0 0 0 0 0 0 0 0 0 0 0 0 0 0 0 0.3 0"/>
<feBlend mode="normal" in2="BackgroundImageFix" result="effect1_dropShadow_6937_13159"/>
<feBlend mode="normal" in="SourceGraphic" in2="effect1_dropShadow_6937_13159" result="shape"/>
</filter>
<linearGradient id="paint0_linear_6937_13159" x1="100" y1="0" x2="100" y2="200" gradientUnits="userSpaceOnUse">
<stop stop-color="#FBF9EB"/>
<stop offset="1" stop-color="#F3C78F"/>
</linearGradient>
<linearGradient id="paint1_linear_6937_13159" x1="-40.0002" y1="74.3255" x2="135" y2="74.3255" gradientUnits="userSpaceOnUse">
<stop stop-color="#FBF8E0"/>
<stop offset="1" stop-color="#DCAF75"/>
</linearGradient>
<linearGradient id="paint2_linear_6937_13159" x1="79.9482" y1="156.262" x2="79.9482" y2="171.262" gradientUnits="userSpaceOnUse">
<stop stop-color="#FBF9EB"/>
<stop offset="1" stop-color="#F3C78F"/>
</linearGradient>
<linearGradient id="paint3_linear_6937_13159" x1="100.948" y1="156.262" x2="100.948" y2="171.262" gradientUnits="userSpaceOnUse">
<stop stop-color="#FBF9EB"/>
<stop offset="1" stop-color="#F3C78F"/>
</linearGradient>
<linearGradient id="paint4_linear_6937_13159" x1="121.948" y1="156.262" x2="121.948" y2="171.262" gradientUnits="userSpaceOnUse">
<stop stop-color="#FBF9EB"/>
<stop offset="1" stop-color="#F3C78F"/>
</linearGradient>
<linearGradient id="paint5_linear_6937_13159" x1="99.7412" y1="75.9502" x2="99.7412" y2="111.95" gradientUnits="userSpaceOnUse">
<stop stop-color="#FBF9EB"/>
<stop offset="1" stop-color="#F3C78F"/>
</linearGradient>
<linearGradient id="paint6_linear_6937_13159" x1="93.1649" y1="56.5249" x2="83.9387" y2="65.1612" gradientUnits="userSpaceOnUse">
<stop stop-color="#FFD69E"/>
<stop offset="1" stop-color="#FFD4B7"/>
</linearGradient>
<linearGradient id="paint7_linear_6937_13159" x1="126.235" y1="56.5274" x2="117.009" y2="65.1637" gradientUnits="userSpaceOnUse">
<stop stop-color="#FFD69E"/>
<stop offset="1" stop-color="#FFD4B7"/>
</linearGradient>
<linearGradient id="paint8_linear_6937_13159" x1="66.6689" y1="36.439" x2="61.3343" y2="36.4486" gradientUnits="userSpaceOnUse">
<stop stop-color="#FFD69E"/>
<stop offset="1" stop-color="#FFD4B7"/>
</linearGradient>
<linearGradient id="paint9_linear_6937_13159" x1="139.453" y1="39.1915" x2="59.3959" y2="39.4945" gradientUnits="userSpaceOnUse">
<stop stop-color="#FFD69E"/>
<stop offset="1" stop-color="#FFD4B7"/>
</linearGradient>
<linearGradient id="paint10_linear_6937_13159" x1="95.845" y1="36.6778" x2="91.3632" y2="36.6885" gradientUnits="userSpaceOnUse">
<stop stop-color="#FFD69E"/>
<stop offset="1" stop-color="#FFD4B7"/>
</linearGradient>
</defs>
</svg>
