<svg width="16" height="17" viewBox="0 0 16 17" fill="none" xmlns="http://www.w3.org/2000/svg">
<path d="M7.99984 15.0678C8.1079 15.0678 8.28351 15.0273 8.45231 14.9328C12.2951 12.7784 13.612 11.8667 13.612 9.40163V4.23523C13.612 3.52611 13.3081 3.30325 12.734 3.06012C11.9371 2.7292 9.36407 1.80397 8.56716 1.52708C8.38476 1.4663 8.18894 1.42578 7.99984 1.42578C7.81075 1.42578 7.61489 1.47981 7.4393 1.52708C6.64239 1.7567 4.06256 2.73596 3.26565 3.06012C2.69836 3.2965 2.3877 3.52611 2.3877 4.23523V9.40163C2.3877 11.8667 3.71138 12.7716 7.54736 14.9328C7.72295 15.0273 7.89179 15.0678 7.99984 15.0678ZM7.99984 13.8455C7.89179 13.8455 7.78373 13.8049 7.58113 13.6833C4.46102 11.7924 3.4615 11.2386 3.4615 9.15175V4.44459C3.4615 4.21497 3.50202 4.12717 3.69112 4.05289C4.71765 3.64768 6.70993 2.97909 7.7297 2.57387C7.83776 2.5266 7.92556 2.51309 7.99984 2.51309C8.07413 2.51309 8.16191 2.53335 8.26997 2.57387C9.28978 2.97909 11.2686 3.69495 12.3153 4.05289C12.4977 4.12043 12.5382 4.21497 12.5382 4.44459V9.15175C12.5382 11.2386 11.5387 11.7857 8.41854 13.6833C8.22271 13.8049 8.1079 13.8455 7.99984 13.8455Z" fill="#939CA3"/>
<path d="M4.51938 9.68972C4.46337 9.68972 4.43537 9.68972 4.41398 9.67882C4.39516 9.66923 4.37986 9.65393 4.37027 9.63511C4.35938 9.61372 4.35938 9.58572 4.35938 9.52972V6.6058C4.35938 6.5498 4.35938 6.52179 4.37027 6.5004C4.37986 6.48159 4.39516 6.46629 4.41398 6.4567C4.43537 6.4458 4.46337 6.4458 4.51938 6.4458H5.03515C5.07442 6.4458 5.09405 6.4458 5.11101 6.45215C5.126 6.45776 5.13941 6.46689 5.15014 6.47876C5.16228 6.49219 5.1695 6.51045 5.18394 6.54697L6.06315 8.77074C6.06465 8.77453 6.06831 8.77701 6.07238 8.77701V8.77701C6.07645 8.77701 6.08011 8.77453 6.0816 8.77074L6.96082 6.54697C6.97525 6.51045 6.98247 6.49219 6.99461 6.47876C7.00534 6.46689 7.01876 6.45776 7.03374 6.45215C7.0507 6.4458 7.07034 6.4458 7.10961 6.4458H7.62538C7.68139 6.4458 7.70939 6.4458 7.73078 6.4567C7.7496 6.46629 7.76489 6.48159 7.77448 6.5004C7.78538 6.52179 7.78538 6.5498 7.78538 6.6058V9.52972C7.78538 9.58572 7.78538 9.61372 7.77448 9.63511C7.76489 9.65393 7.7496 9.66923 7.73078 9.67882C7.70939 9.68972 7.68139 9.68972 7.62538 9.68972H7.34066C7.28465 9.68972 7.25665 9.68972 7.23526 9.67882C7.21644 9.66923 7.20115 9.65393 7.19156 9.63511C7.18066 9.61372 7.18066 9.58572 7.18066 9.52972V7.50769C7.18066 7.50103 7.17526 7.49563 7.1686 7.49563V7.49563C7.16367 7.49563 7.15923 7.49864 7.1574 7.50323L6.3261 9.58895C6.3116 9.62533 6.30435 9.64352 6.29221 9.6569C6.28149 9.66873 6.26809 9.67781 6.25314 9.68339C6.23621 9.68972 6.21663 9.68972 6.17747 9.68972H5.96718C5.92805 9.68972 5.90849 9.68972 5.89158 9.6834C5.87664 9.67783 5.86324 9.66876 5.85252 9.65695C5.84038 9.64359 5.83312 9.62542 5.8186 9.58909L4.98478 7.50238C4.98315 7.4983 4.9792 7.49563 4.97482 7.49563V7.49563C4.9689 7.49563 4.9641 7.50043 4.9641 7.50636V9.52972C4.9641 9.58572 4.9641 9.61372 4.9532 9.63511C4.94361 9.65393 4.92831 9.66923 4.9095 9.67882C4.8881 9.68972 4.8601 9.68972 4.8041 9.68972H4.51938Z" fill="#939CA3"/>
<path d="M8.48491 9.68972C8.4289 9.68972 8.4009 9.68972 8.37951 9.67882C8.36069 9.66923 8.3454 9.65393 8.33581 9.63511C8.32491 9.61372 8.32491 9.58572 8.32491 9.52972V6.6058C8.32491 6.5498 8.32491 6.52179 8.33581 6.5004C8.3454 6.48159 8.36069 6.46629 8.37951 6.4567C8.4009 6.4458 8.4289 6.4458 8.48491 6.4458H8.84382C8.89982 6.4458 8.92782 6.4458 8.94922 6.4567C8.96803 6.46629 8.98333 6.48159 8.99292 6.5004C9.00382 6.52179 9.00382 6.5498 9.00382 6.6058V9.52972C9.00382 9.58572 9.00382 9.61372 8.99292 9.63511C8.98333 9.65393 8.96803 9.66923 8.94922 9.67882C8.92782 9.68972 8.89982 9.68972 8.84382 9.68972H8.48491Z" fill="#939CA3"/>
<path d="M9.70334 9.68972C9.64734 9.68972 9.61934 9.68972 9.59795 9.67882C9.57913 9.66923 9.56383 9.65393 9.55424 9.63511C9.54334 9.61372 9.54334 9.58572 9.54334 9.52972V6.6058C9.54334 6.5498 9.54334 6.52179 9.55424 6.5004C9.56383 6.48159 9.57913 6.46629 9.59795 6.4567C9.61934 6.4458 9.64734 6.4458 9.70334 6.4458H10.0623C10.1183 6.4458 10.1463 6.4458 10.1677 6.4567C10.1865 6.46629 10.2018 6.48159 10.2114 6.5004C10.2223 6.52179 10.2223 6.5498 10.2223 6.6058V8.96995C10.2223 9.02596 10.2223 9.05396 10.2332 9.07535C10.2427 9.09417 10.258 9.10947 10.2769 9.11906C10.2982 9.12995 10.3262 9.12995 10.3823 9.12995H11.4808C11.5368 9.12995 11.5648 9.12995 11.5862 9.14085C11.605 9.15044 11.6203 9.16574 11.6299 9.18456C11.6408 9.20595 11.6408 9.23395 11.6408 9.28995V9.52972C11.6408 9.58572 11.6408 9.61372 11.6299 9.63511C11.6203 9.65393 11.605 9.66923 11.5862 9.67882C11.5648 9.68972 11.5368 9.68972 11.4808 9.68972H9.70334Z" fill="#939CA3"/>
</svg>
